<svg id="Capa_1" data-name="Capa 1" xmlns="http://www.w3.org/2000/svg" xmlns:xlink="http://www.w3.org/1999/xlink" viewBox="0 0 48 48"><defs><style>.cls-1{fill:#1c3463;}.cls-2{fill:#fff;}.cls-3{fill:url(#Degradado_sin_nombre_14);}.cls-4{fill:url(#Degradado_sin_nombre_14-2);}</style><linearGradient id="Degradado_sin_nombre_14" x1="7.82" y1="17.94" x2="28.08" y2="15.63" gradientUnits="userSpaceOnUse"><stop offset="0.5" stop-color="#fff"/><stop offset="0.86" stop-color="#fff" stop-opacity="0.4"/></linearGradient><linearGradient id="Degradado_sin_nombre_14-2" x1="11.9" y1="24.91" x2="21.38" y2="24.91" xlink:href="#Degradado_sin_nombre_14"/></defs><title>XcalaLogoFavicon_SVG</title><circle class="cls-1" cx="24" cy="24" r="24"/><path class="cls-2" d="M29.9,40.9c-.6-7-1.3-14-1.9-21.1h-.1l-.7-8.3a60.4,60.4,0,0,1,9.1-.4,60.4,60.4,0,0,1-.6,13A55.6,55.6,0,0,1,29.9,40.9Z"/><path class="cls-3" d="M27.9,19.8,7.6,18.3a53.6,53.6,0,0,1,14.5-5.8l5.1-1Z"/><path class="cls-2" d="M22.3,36.7l-.9-9.9h0L21,23a22.2,22.2,0,0,1,4.3-.2,25.8,25.8,0,0,1-.3,6A27.5,27.5,0,0,1,22.3,36.7Z"/><path class="cls-4" d="M21.4,26.8l-9.5-.7a26.6,26.6,0,0,1,6.8-2.7L21,23Z"/></svg>