<svg id="Capa_1" data-name="Capa 1" xmlns="http://www.w3.org/2000/svg" viewBox="0 0 194.78 197"><defs><style>.cls-1{fill:#3d4c88;}.cls-2{fill:none;}</style></defs><title>accountDetails-7px</title><path class="cls-1" d="M12.93,198.5A11.45,11.45,0,0,1,1.5,187.07V12.93A11.45,11.45,0,0,1,12.93,1.5H153.57A11.45,11.45,0,0,1,165,12.93V54.15a3.5,3.5,0,1,1-7,0v-40a5.68,5.68,0,0,0-5.67-5.65H14.17A5.67,5.67,0,0,0,8.5,14.17V185.83a5.67,5.67,0,0,0,5.67,5.67H152.33a5.67,5.67,0,0,0,5.67-5.67V159.64a3.5,3.5,0,0,1,7,0v27.43a11.45,11.45,0,0,1-11.43,11.43Z" transform="translate(-1.5 -1.5)"/><line class="cls-2" x1="43.5" y1="107.5" x2="106.5" y2="107.5"/><rect class="cls-2" x="43.5" y="106" width="63" height="3"/><path class="cls-1" d="M50,112.5a3.5,3.5,0,0,1,0-7h53a3.5,3.5,0,0,1,0,7Z" transform="translate(-1.5 -1.5)"/><line class="cls-2" x1="43.5" y1="129.5" x2="106.5" y2="129.5"/><rect class="cls-2" x="43.5" y="128" width="63" height="3"/><path class="cls-1" d="M50,134.5a3.5,3.5,0,0,1,0-7h53a3.5,3.5,0,0,1,0,7Z" transform="translate(-1.5 -1.5)"/><line class="cls-2" x1="43.5" y1="151.5" x2="106.5" y2="151.5"/><rect class="cls-2" x="43.5" y="150" width="63" height="3"/><path class="cls-1" d="M50,156.5a3.5,3.5,0,0,1,0-7h53a3.5,3.5,0,0,1,0,7Z" transform="translate(-1.5 -1.5)"/><circle class="cls-1" cx="30.5" cy="107.5" r="4"/><circle class="cls-1" cx="30.5" cy="129.5" r="4"/><circle class="cls-1" cx="30.5" cy="151.5" r="4"/><line class="cls-2" x1="77.5" y1="173.5" x2="106.5" y2="173.5"/><rect class="cls-2" x="77.5" y="172" width="29" height="3"/><path class="cls-1" d="M84,178.5a3.5,3.5,0,0,1,0-7h19a3.5,3.5,0,0,1,0,7Z" transform="translate(-1.5 -1.5)"/><path class="cls-1" d="M82.5,93.5a36,36,0,1,1,36-36A36,36,0,0,1,82.5,93.5Zm.2-25c-9.09,0-16.21,6.38-18.86,9.12l-1.11,1.16,1.23,1A29,29,0,0,0,82.5,86.49h0a29,29,0,0,0,18.06-6.33l1.24-1L100.73,78c-3-3.34-9.25-9-16.89-9.49Q83.27,68.46,82.7,68.46ZM82,40A13.52,13.52,0,0,1,95.5,53.5a14.16,14.16,0,0,1-3.75,9.62l-1.4,1.51,1.87.87A37.06,37.06,0,0,1,104,74.15l1.27,1.39L106.33,74a29,29,0,1,0-48-.49l1,1.54,1.3-1.32A38,38,0,0,1,72,65.8l1.93-.88-1.47-1.53a14.17,14.17,0,0,1-4-9.89A13.52,13.52,0,0,1,82,40Zm-.51,4.48c-.21,0-.42,0-.63,0a9,9,0,0,0,.61,18l.63,0a8.79,8.79,0,0,0,8.4-9c0-.16,0-.37,0-.58A9.05,9.05,0,0,0,81.49,44.48Z" transform="translate(-1.5 -1.5)"/><path class="cls-1" d="M120.58,144.16l47.55-82.73q.26-.45.54-.87A15.09,15.09,0,0,1,194.3,76.47l-48.38,84.18-30.11,22.89Zm1.63,28.22,18.35-13.95L125,149.1Zm4.2-28.28,17.29,10.42,41-71.36L167.41,72.71Zm54.84-85.26a10.34,10.34,0,0,0-2.35.28,10,10,0,0,0-6.38,4.8L170,68.41l17.28,10.44L190,74a10.15,10.15,0,0,0-3.16-13.42A10,10,0,0,0,181.25,58.84Z" transform="translate(-1.5 -1.5)"/></svg>