<svg id="Capa_1" data-name="Capa 1" xmlns="http://www.w3.org/2000/svg" viewBox="0 0 192.78 195"><defs><style>.cls-1{fill:#3d4c88;}.cls-2{fill:none;}</style></defs><title>accountDetails-5px</title><path class="cls-1" d="M12.93,197.5A10.44,10.44,0,0,1,2.5,187.07V12.93A10.44,10.44,0,0,1,12.93,2.5H153.57A10.44,10.44,0,0,1,164,12.93V54.15a2.5,2.5,0,1,1-5,0v-40a6.69,6.69,0,0,0-6.67-6.65H14.17A6.67,6.67,0,0,0,7.5,14.17V185.83a6.67,6.67,0,0,0,6.67,6.67H152.33a6.67,6.67,0,0,0,6.67-6.67V159.64a2.5,2.5,0,0,1,5,0v27.43a10.44,10.44,0,0,1-10.43,10.43Z" transform="translate(-2.5 -2.5)"/><line class="cls-2" x1="42.5" y1="106.5" x2="105.5" y2="106.5"/><rect class="cls-2" x="42.5" y="104" width="63" height="5"/><path class="cls-1" d="M50,111.5a2.5,2.5,0,0,1,0-5h53a2.5,2.5,0,0,1,0,5Z" transform="translate(-2.5 -2.5)"/><line class="cls-2" x1="42.5" y1="128.5" x2="105.5" y2="128.5"/><rect class="cls-2" x="42.5" y="126" width="63" height="5"/><path class="cls-1" d="M50,133.5a2.5,2.5,0,0,1,0-5h53a2.5,2.5,0,0,1,0,5Z" transform="translate(-2.5 -2.5)"/><line class="cls-2" x1="42.5" y1="150.5" x2="105.5" y2="150.5"/><rect class="cls-2" x="42.5" y="148" width="63" height="5"/><path class="cls-1" d="M50,155.5a2.5,2.5,0,0,1,0-5h53a2.5,2.5,0,0,1,0,5Z" transform="translate(-2.5 -2.5)"/><circle class="cls-1" cx="29.5" cy="106.5" r="4"/><circle class="cls-1" cx="29.5" cy="128.5" r="4"/><circle class="cls-1" cx="29.5" cy="150.5" r="4"/><line class="cls-2" x1="76.5" y1="172.5" x2="105.5" y2="172.5"/><rect class="cls-2" x="76.5" y="170" width="29" height="5"/><path class="cls-1" d="M84,177.5a2.5,2.5,0,0,1,0-5h19a2.5,2.5,0,0,1,0,5Z" transform="translate(-2.5 -2.5)"/><path class="cls-1" d="M82.5,92.5a35,35,0,1,1,35-35A35,35,0,0,1,82.5,92.5Zm.2-25c-9.47,0-16.85,6.59-19.58,9.43l-1.86,1.93,2.06,1.72A30,30,0,0,0,82.5,87.49h0a30,30,0,0,0,18.68-6.55l2.08-1.66-1.79-2C98.34,73.86,91.9,68,83.91,67.5,83.5,67.47,83.1,67.46,82.7,67.46ZM82,41A12.52,12.52,0,0,1,94.5,53.5,13.1,13.1,0,0,1,91,62.44L88.69,65l3.1,1.45a35.92,35.92,0,0,1,11.46,8.41l2.12,2.32,1.78-2.58a30,30,0,1,0-49.65-.51l1.7,2.57,2.16-2.19a36.82,36.82,0,0,1,11-7.72l3.22-1.46L73.18,62.7a13.18,13.18,0,0,1-3.68-9.19A12.52,12.52,0,0,1,82,41Zm-.51,2.48-.7,0a10,10,0,0,0,.68,20c.23,0,.47,0,.7,0A9.77,9.77,0,0,0,91.5,53.42c0-.15,0-.38,0-.62A10,10,0,0,0,81.49,43.48Z" transform="translate(-2.5 -2.5)"/><path class="cls-1" d="M121.55,144.49,169,61.93c.16-.28.32-.55.5-.82A14.09,14.09,0,0,1,193.43,76l-48.28,84-28.07,21.33Zm-.61,30.12,21.4-16.27-18.11-10.89Zm4.11-30.16,19,11.45,42-73.09-19-11.48Zm56.2-86.61a11.32,11.32,0,0,0-2.59.31,11.07,11.07,0,0,0-7,5.27l-3.05,5.34,19,11.48,3.27-5.79a11.16,11.16,0,0,0-3.47-14.74A11,11,0,0,0,181.25,57.84Z" transform="translate(-2.5 -2.5)"/></svg>