<svg id="Capa_1" data-name="Capa 1" xmlns="http://www.w3.org/2000/svg" viewBox="0 0 197.79 200"><defs><style>.cls-1{fill:#3d4c88;}</style></defs><title>accountDetails</title><path class="cls-1" d="M153.57,200H12.93A12.93,12.93,0,0,1,0,187.07V12.93A12.93,12.93,0,0,1,12.93,0H153.57A12.93,12.93,0,0,1,166.5,12.93V54.15a5,5,0,0,1-5,5h0a5,5,0,0,1-5-5v-40A4.17,4.17,0,0,0,152.33,10H14.17A4.17,4.17,0,0,0,10,14.17V185.83A4.17,4.17,0,0,0,14.17,190H152.33a4.17,4.17,0,0,0,4.17-4.17V159.64a5,5,0,0,1,5-5h0a5,5,0,0,1,5,5v27.43A12.93,12.93,0,0,1,153.57,200Z"/><line class="cls-1" x1="45" y1="109" x2="108" y2="109"/><rect class="cls-1" x="45" y="104" width="63" height="10" rx="5"/><line class="cls-1" x1="45" y1="131" x2="108" y2="131"/><rect class="cls-1" x="45" y="126" width="63" height="10" rx="5"/><line class="cls-1" x1="45" y1="153" x2="108" y2="153"/><rect class="cls-1" x="45" y="148" width="63" height="10" rx="5"/><circle class="cls-1" cx="32" cy="109" r="4"/><circle class="cls-1" cx="32" cy="131" r="4"/><circle class="cls-1" cx="32" cy="153" r="4"/><line class="cls-1" x1="79" y1="175" x2="108" y2="175"/><rect class="cls-1" x="79" y="170" width="29" height="10" rx="5"/><path class="cls-1" d="M82.5,20A37.5,37.5,0,1,0,120,57.5,37.54,37.54,0,0,0,82.5,20ZM64.92,78.63c2.29-2.38,9.7-9.19,18.83-8.64,7.34.46,13.43,6.31,15.87,9a27.43,27.43,0,0,1-34.7-.37ZM82,61a7.52,7.52,0,1,1,7-7.5A7.27,7.27,0,0,1,82,61Zm23.1,12.14a38.69,38.69,0,0,0-12.25-9A15.66,15.66,0,0,0,97,53.5a15,15,0,1,0-30,0,15.72,15.72,0,0,0,4.38,10.93,39.58,39.58,0,0,0-11.8,8.24,27.5,27.5,0,1,1,45.52.47Z"/><path class="cls-1" d="M190.42,55.14a16.58,16.58,0,0,0-23.59,5.54l-47.7,83-5.24,43.2,33.18-25.22L195.6,77.21A16.63,16.63,0,0,0,190.42,55.14Zm-11.17,5.44A8.52,8.52,0,0,1,186,61.79a8.61,8.61,0,0,1,2.68,11.43l-2,3.55-14.7-8.89,1.84-3.22A8.53,8.53,0,0,1,179.25,60.58Zm-53,91,11.64,7-13.76,10.46Zm16.91.86-14.72-8.87,39.51-68.78,14.71,8.89Z"/></svg>