<svg id="Capa_1" data-name="Capa 1" xmlns="http://www.w3.org/2000/svg" viewBox="0 0 210.66 178.1"><defs><style>.cls-1{fill:#fff;}</style></defs><title>backArrow</title><path class="cls-1" d="M202.42,91H53.21l50.33-50.32a8.59,8.59,0,0,0,0-12.14l-9.08-9.08a8.59,8.59,0,0,0-12.14,0L2.86,98.93a8.57,8.57,0,0,0,0,12.14l81.46,81.47a8.59,8.59,0,0,0,12.14,0l9.08-9.08a8.59,8.59,0,0,0,0-12.14L55.21,121H202.42a8.58,8.58,0,0,0,8.58-8.58V99.58A8.58,8.58,0,0,0,202.42,91Z" transform="translate(-0.34 -16.95)"/></svg>