<svg id="Capa_1" data-name="Capa 1" xmlns="http://www.w3.org/2000/svg" viewBox="0 0 144.6 144.7"><defs><style>.cls-1{fill:#29abe2;}</style></defs><title>customerIcon</title><path class="cls-1" d="M75.7,147.5A72.4,72.4,0,1,1,148,75.2,72.4,72.4,0,0,1,75.7,147.5Zm0-137.7A65.4,65.4,0,1,0,141,75.2,65.4,65.4,0,0,0,75.7,9.8Z" transform="translate(-3.4 -2.8)"/><circle class="cls-1" cx="50.4" cy="55.5" r="11.5"/><circle class="cls-1" cx="93.4" cy="55.5" r="11.5"/><path class="cls-1" d="M74.6,124.5A41.2,41.2,0,0,1,33.6,87a3.3,3.3,0,0,1,3.3-3.7h.4a3.4,3.4,0,0,1,3.3,3.1,34.1,34.1,0,0,0,68,0,3.4,3.4,0,0,1,3.3-3.1h.3a3.4,3.4,0,0,1,3.4,3.7A41.3,41.3,0,0,1,74.6,124.5Z" transform="translate(-3.4 -2.8)"/></svg>