<?xml version="1.0" encoding="utf-8"?>
<!-- Generator: Adobe Illustrator 23.0.2, SVG Export Plug-In . SVG Version: 6.00 Build 0)  -->
<svg version="1.1" id="Capa_1" xmlns="http://www.w3.org/2000/svg" xmlns:xlink="http://www.w3.org/1999/xlink" x="0px" y="0px"
	 viewBox="0 0 198 62.1" style="enable-background:new 0 0 198 62.1;" xml:space="preserve">
<style type="text/css">
	.st0{fill:#FFFFFF;}
	.st1{fill:#7D7D7D;}
</style>
<title>details</title>
<circle cx="31.9" cy="30.9" r="28.9"/>
<circle cx="99.5" cy="30.9" r="28.9"/>
<circle cx="167.1" cy="30.9" r="28.9"/>
<image style="overflow:visible;" width="383" height="283" xlink:href="B38D7699.jpg"  transform="matrix(1 0 0 1 -568 -288)">
</image>
<image style="overflow:visible;" width="392" height="183" xlink:href="B38D769B.jpg"  transform="matrix(1 0 0 1 -572.5 36)">
</image>
<image style="overflow:visible;" width="373" height="622" xlink:href="B38D769E.jpg"  transform="matrix(1 0 0 1 -172 -895)">
</image>
<rect x="-141" y="-766.8" class="st0" width="313" height="324"/>
<image style="overflow:visible;" width="223" height="61" xlink:href="B38D769F.jpg"  transform="matrix(1 0 0 1 -141 -472.805)">
</image>
<text transform="matrix(0.9862 0 0 1 -141.0005 -709.0277)"><tspan x="0" y="0" style="font-family:'ArialRoundedMTBold'; font-size:20.2148px;">Producto relacionado:</tspan><tspan x="0" y="17.1" style="font-family:'MyriadPro-Regular'; font-size:14.2693px;">Adidas Y de Julian</tspan></text>
<text transform="matrix(0.9862 0 0 1 -141.0005 -639.0277)"><tspan x="0" y="0" style="font-family:'ArialRoundedMTBold'; font-size:20.2148px;">Motivo de la solicitud:</tspan><tspan x="0" y="17.1" style="font-family:'MyriadPro-Regular'; font-size:14.2693px;">Garantia</tspan></text>
<text transform="matrix(0.9862 0 0 1 -141 -571.8051)"><tspan x="0" y="0" style="font-family:'ArialRoundedMTBold'; font-size:20.2148px;">Tu descripcion del caso:</tspan><tspan x="0" y="17.1" style="font-family:'MyriadPro-Regular'; font-size:14.2693px;">Voy a reclamar la garantia por que la suela del zapato </tspan><tspan x="0" y="34.2" style="font-family:'MyriadPro-Regular'; font-size:14.2693px;">se quebro por la mitad. Adjunto las preubas</tspan></text>
<text transform="matrix(0.9862 0 0 1 -141.0005 -481.805)" style="font-family:'ArialRoundedMTBold'; font-size:20.2148px;">Tus pruebas:</text>
<image style="overflow:visible;" width="373" height="622" xlink:href="B38D769A.jpg"  transform="matrix(1 0 0 1 236 -895)">
</image>
<rect x="267" y="-766.8" class="st0" width="313" height="324"/>
<image style="overflow:visible;" width="223" height="61" xlink:href="B38D7695.jpg"  transform="matrix(1 0 0 1 267 -432.805)">
</image>
<text transform="matrix(0.9862 0 0 1 266.9995 -719.0277)"><tspan x="0" y="0" class="st1" style="font-family:'MyriadPro-Regular'; font-size:16px;">Producto relacionado:</tspan><tspan x="0" y="24.3" style="font-family:'ArialRoundedMTBold'; font-size:20.2148px;">Adidas Y de Julian</tspan></text>
<text transform="matrix(0.9862 0 0 1 266.9995 -649.0277)"><tspan x="0" y="0" class="st1" style="font-family:'MyriadPro-Regular'; font-size:16px;">Motivo de la solicitud:</tspan><tspan x="0" y="24.3" style="font-family:'ArialRoundedMTBold'; font-size:20.2148px;">Garantia</tspan></text>
<g>
	<g>
		<path class="st1" d="M270.2-591.4H267v-1.2h7.9v1.2h-3.3v9.6h-1.4V-591.4z"/>
		<path class="st1" d="M282.4-583.9c0,0.8,0,1.5,0.1,2.1h-1.2l-0.1-1.3h0c-0.4,0.6-1.2,1.4-2.5,1.4c-1.2,0-2.6-0.7-2.6-3.4v-4.5h1.4
			v4.3c0,1.5,0.4,2.5,1.7,2.5c0.9,0,1.6-0.7,1.8-1.3c0.1-0.2,0.1-0.5,0.1-0.7v-4.8h1.4V-583.9z"/>
		<path class="st1" d="M294.6-593.2v9.4c0,0.7,0,1.5,0.1,2h-1.2l-0.1-1.3h0c-0.4,0.9-1.4,1.5-2.6,1.5c-1.8,0-3.3-1.6-3.3-3.9
			c0-2.6,1.6-4.2,3.4-4.2c1.2,0,2,0.6,2.3,1.2h0v-4.6H294.6z M293.2-586.4c0-0.2,0-0.4-0.1-0.6c-0.2-0.9-1-1.6-2-1.6
			c-1.4,0-2.3,1.3-2.3,3c0,1.6,0.8,2.9,2.3,2.9c0.9,0,1.8-0.6,2-1.7c0-0.2,0.1-0.4,0.1-0.6V-586.4z"/>
		<path class="st1" d="M297.7-585.4c0,1.9,1.2,2.7,2.6,2.7c1,0,1.6-0.2,2.1-0.4l0.2,1c-0.5,0.2-1.3,0.5-2.5,0.5
			c-2.4,0-3.8-1.6-3.8-3.9s1.4-4.2,3.6-4.2c2.5,0,3.2,2.2,3.2,3.6c0,0.3,0,0.5,0,0.7H297.7z M301.8-586.4c0-0.9-0.4-2.3-1.9-2.3
			c-1.4,0-2,1.3-2.1,2.3H301.8z"/>
		<path class="st1" d="M304.7-583.2c0.4,0.3,1.1,0.6,1.8,0.6c1,0,1.5-0.5,1.5-1.2c0-0.7-0.4-1-1.4-1.4c-1.4-0.5-2-1.3-2-2.2
			c0-1.2,1-2.3,2.6-2.3c0.8,0,1.5,0.2,1.9,0.5l-0.3,1c-0.3-0.2-0.9-0.4-1.6-0.4c-0.8,0-1.3,0.5-1.3,1.1c0,0.6,0.5,0.9,1.5,1.3
			c1.3,0.5,2,1.2,2,2.3c0,1.4-1,2.3-2.9,2.3c-0.8,0-1.6-0.2-2.1-0.5L304.7-583.2z"/>
		<path class="st1" d="M316.5-582.1c-0.4,0.2-1.2,0.4-2.2,0.4c-2.3,0-3.8-1.6-3.8-4c0-2.4,1.6-4.1,4.1-4.1c0.8,0,1.5,0.2,1.9,0.4
			l-0.3,1.1c-0.3-0.2-0.9-0.4-1.6-0.4c-1.8,0-2.7,1.3-2.7,2.9c0,1.8,1.1,2.9,2.7,2.9c0.8,0,1.3-0.2,1.7-0.4L316.5-582.1z"/>
		<path class="st1" d="M318.2-587.1c0-0.9,0-1.7-0.1-2.4h1.2l0,1.5h0.1c0.3-1,1.2-1.7,2.1-1.7c0.2,0,0.3,0,0.4,0v1.3
			c-0.1,0-0.3,0-0.5,0c-1,0-1.7,0.8-1.9,1.8c0,0.2-0.1,0.4-0.1,0.7v4.1h-1.4V-587.1z"/>
		<path class="st1" d="M324.9-591.7c0,0.5-0.3,0.9-0.9,0.9c-0.5,0-0.8-0.4-0.8-0.9c0-0.5,0.4-0.9,0.9-0.9
			C324.5-592.6,324.9-592.2,324.9-591.7z M323.3-581.8v-7.7h1.4v7.7H323.3z"/>
		<path class="st1" d="M327-587c0-1,0-1.8-0.1-2.5h1.2l0.1,1.3h0c0.6-0.9,1.5-1.5,2.7-1.5c1.8,0,3.2,1.6,3.2,3.9
			c0,2.8-1.7,4.2-3.5,4.2c-1,0-1.9-0.4-2.4-1.2h0v4.2H327V-587z M328.4-585c0,0.2,0,0.4,0.1,0.6c0.3,1,1.1,1.6,2.1,1.6
			c1.5,0,2.3-1.2,2.3-3c0-1.6-0.8-2.9-2.3-2.9c-0.9,0-1.8,0.7-2.1,1.7c0,0.2-0.1,0.4-0.1,0.6V-585z"/>
		<path class="st1" d="M341.4-582.1c-0.4,0.2-1.2,0.4-2.2,0.4c-2.3,0-3.8-1.6-3.8-4c0-2.4,1.6-4.1,4.1-4.1c0.8,0,1.5,0.2,1.9,0.4
			l-0.3,1.1c-0.3-0.2-0.9-0.4-1.6-0.4c-1.8,0-2.7,1.3-2.7,2.9c0,1.8,1.1,2.9,2.7,2.9c0.8,0,1.3-0.2,1.7-0.4L341.4-582.1z"/>
		<path class="st1" d="M344.6-591.7c0,0.5-0.3,0.9-0.9,0.9c-0.5,0-0.8-0.4-0.8-0.9c0-0.5,0.4-0.9,0.9-0.9
			C344.3-592.6,344.6-592.2,344.6-591.7z M343.1-581.8v-7.7h1.4v7.7H343.1z"/>
		<path class="st1" d="M353.7-585.7c0,2.9-2,4.1-3.8,4.1c-2.1,0-3.7-1.5-3.7-4c0-2.6,1.7-4.1,3.8-4.1
			C352.2-589.7,353.7-588.1,353.7-585.7z M347.6-585.7c0,1.7,1,3,2.3,3c1.3,0,2.3-1.3,2.3-3c0-1.3-0.6-3-2.3-3
			S347.6-587.1,347.6-585.7z"/>
		<path class="st1" d="M355.4-587.5c0-0.8,0-1.5-0.1-2.1h1.2l0.1,1.3h0c0.4-0.7,1.3-1.5,2.5-1.5c1.1,0,2.7,0.6,2.7,3.3v4.6h-1.4
			v-4.5c0-1.2-0.5-2.3-1.8-2.3c-0.9,0-1.6,0.7-1.9,1.4c-0.1,0.2-0.1,0.4-0.1,0.7v4.7h-1.4V-587.5z"/>
		<path class="st1" d="M374.1-593.2v9.4c0,0.7,0,1.5,0.1,2h-1.2l-0.1-1.3h0c-0.4,0.9-1.4,1.5-2.6,1.5c-1.8,0-3.3-1.6-3.3-3.9
			c0-2.6,1.6-4.2,3.4-4.2c1.2,0,2,0.6,2.3,1.2h0v-4.6H374.1z M372.7-586.4c0-0.2,0-0.4-0.1-0.6c-0.2-0.9-1-1.6-2-1.6
			c-1.4,0-2.3,1.3-2.3,3c0,1.6,0.8,2.9,2.3,2.9c0.9,0,1.8-0.6,2-1.7c0-0.2,0.1-0.4,0.1-0.6V-586.4z"/>
		<path class="st1" d="M377.2-585.4c0,1.9,1.2,2.7,2.6,2.7c1,0,1.6-0.2,2.1-0.4l0.2,1c-0.5,0.2-1.3,0.5-2.5,0.5
			c-2.4,0-3.8-1.6-3.8-3.9s1.4-4.2,3.6-4.2c2.5,0,3.2,2.2,3.2,3.6c0,0.3,0,0.5,0,0.7H377.2z M381.3-586.4c0-0.9-0.4-2.3-1.9-2.3
			c-1.4,0-2,1.3-2.1,2.3H381.3z"/>
		<path class="st1" d="M384.3-593.2h1.4v11.4h-1.4V-593.2z"/>
		<path class="st1" d="M396.8-582.1c-0.4,0.2-1.2,0.4-2.2,0.4c-2.3,0-3.8-1.6-3.8-4c0-2.4,1.6-4.1,4.1-4.1c0.8,0,1.5,0.2,1.9,0.4
			l-0.3,1.1c-0.3-0.2-0.9-0.4-1.6-0.4c-1.8,0-2.7,1.3-2.7,2.9c0,1.8,1.1,2.9,2.7,2.9c0.8,0,1.3-0.2,1.7-0.4L396.8-582.1z"/>
		<path class="st1" d="M402.7-581.8l-0.1-1h0c-0.4,0.6-1.2,1.2-2.3,1.2c-1.5,0-2.3-1.1-2.3-2.2c0-1.9,1.6-2.9,4.6-2.9v-0.2
			c0-0.6-0.2-1.8-1.7-1.8c-0.7,0-1.5,0.2-2,0.6l-0.3-0.9c0.6-0.4,1.5-0.7,2.5-0.7c2.3,0,2.9,1.6,2.9,3.2v2.9c0,0.7,0,1.3,0.1,1.9
			H402.7z M402.5-585.8c-1.5,0-3.2,0.2-3.2,1.7c0,0.9,0.6,1.3,1.3,1.3c1,0,1.6-0.6,1.8-1.3c0-0.1,0.1-0.3,0.1-0.4V-585.8z"/>
		<path class="st1" d="M405.9-583.2c0.4,0.3,1.1,0.6,1.8,0.6c1,0,1.5-0.5,1.5-1.2c0-0.7-0.4-1-1.4-1.4c-1.4-0.5-2-1.3-2-2.2
			c0-1.2,1-2.3,2.6-2.3c0.8,0,1.5,0.2,1.9,0.5l-0.3,1c-0.3-0.2-0.9-0.4-1.6-0.4c-0.8,0-1.3,0.5-1.3,1.1c0,0.6,0.5,0.9,1.5,1.3
			c1.3,0.5,2,1.2,2,2.3c0,1.4-1,2.3-2.9,2.3c-0.8,0-1.6-0.2-2.1-0.5L405.9-583.2z"/>
		<path class="st1" d="M419.2-585.7c0,2.9-2,4.1-3.8,4.1c-2.1,0-3.7-1.5-3.7-4c0-2.6,1.7-4.1,3.8-4.1
			C417.7-589.7,419.2-588.1,419.2-585.7z M413.2-585.7c0,1.7,1,3,2.3,3c1.3,0,2.3-1.3,2.3-3c0-1.3-0.6-3-2.3-3
			S413.2-587.1,413.2-585.7z"/>
		<path class="st1" d="M420.6-588.3c0-0.6,0.4-1,0.9-1s0.9,0.4,0.9,1c0,0.6-0.4,1-0.9,1C421-587.3,420.6-587.7,420.6-588.3z
			 M420.6-582.6c0-0.6,0.4-1,0.9-1s0.9,0.4,0.9,1c0,0.6-0.4,1-0.9,1C421-581.6,420.6-582.1,420.6-582.6z"/>
		<path d="M271.5-557.5l-4.5-13.6h1l2.4,7.3c0.6,2,1.2,3.7,1.6,5.2h0c0.4-1.5,1-3.3,1.7-5.2l2.6-7.3h1l-5,13.6H271.5z"/>
		<path d="M286.9-562.5c0,3.6-2.4,5.2-4.6,5.2c-2.5,0-4.4-2-4.4-5c0-3.3,2.1-5.2,4.5-5.2C285.1-567.5,286.9-565.5,286.9-562.5z
			 M278.9-562.4c0,2.4,1.5,4.2,3.5,4.2c2,0,3.6-1.8,3.6-4.3c0-1.8-1-4.2-3.5-4.2C280-566.7,278.9-564.5,278.9-562.4z"/>
		<path d="M289-567.3l2.5,6.3c0.3,0.7,0.5,1.5,0.7,2.1h0c0.2-0.6,0.4-1.4,0.7-2.2l2.3-6.3h1l-2.9,7.2c-1.2,3-2,4.8-3.2,5.9
			c-0.8,0.7-1.5,0.9-1.7,1l-0.3-0.8c0.5-0.2,1.1-0.5,1.7-1.1c0.5-0.5,1.1-1.3,1.6-2.4c0.1-0.2,0.1-0.3,0.1-0.4c0-0.1,0-0.2-0.1-0.4
			l-3.5-9H289z"/>
		<path d="M307.7-557.5l-0.1-1.4h0c-0.5,0.7-1.5,1.6-3.1,1.6c-1.9,0-2.8-1.4-2.8-2.7c0-2.2,1.9-3.6,5.8-3.5v-0.3
			c0-1-0.2-2.9-2.4-2.9c-0.8,0-1.7,0.2-2.4,0.7l-0.3-0.7c0.9-0.6,1.9-0.8,2.8-0.8c2.8,0,3.3,2.1,3.3,3.8v3.8c0,0.8,0,1.6,0.1,2.3
			H307.7z M307.5-562.7c-2.1-0.1-4.8,0.3-4.8,2.6c0,1.4,0.9,2,1.9,2c1.6,0,2.5-1,2.8-1.9c0.1-0.2,0.1-0.4,0.1-0.6V-562.7z"/>
		<path d="M315.9-564.3c0-1,0-2-0.1-2.9h0.9l0,2h0.1c0.4-1.2,1.4-2.2,2.7-2.2c0.1,0,0.3,0,0.4,0v0.9c-0.1,0-0.3,0-0.5,0
			c-1.3,0-2.3,1.2-2.5,2.7c-0.1,0.3-0.1,0.6-0.1,0.9v5.4h-0.9V-564.3z"/>
		<path d="M321.9-562.5c0,3.1,1.7,4.3,3.6,4.3c1.4,0,2.1-0.3,2.7-0.6l0.2,0.8c-0.4,0.2-1.4,0.6-3,0.6c-2.8,0-4.5-2-4.5-4.9
			c0-3.2,1.8-5.3,4.3-5.3c3.1,0,3.7,3,3.7,4.4c0,0.3,0,0.4,0,0.6H321.9z M328-563.3c0-1.4-0.5-3.4-2.9-3.4c-2.1,0-3,1.9-3.2,3.4H328
			z"/>
		<path d="M338.1-558c-0.4,0.2-1.4,0.6-2.8,0.6c-2.8,0-4.6-2-4.6-5c0-3.1,2.1-5.2,4.9-5.2c1.2,0,2.1,0.3,2.5,0.6l-0.3,0.8
			c-0.5-0.3-1.2-0.6-2.3-0.6c-2.6,0-3.9,2-3.9,4.3c0,2.5,1.6,4.2,3.8,4.2c1.1,0,1.9-0.3,2.4-0.6L338.1-558z"/>
		<path d="M340.4-571.9h0.9v14.4h-0.9V-571.9z"/>
		<path d="M349.8-557.5l-0.1-1.4h0c-0.5,0.7-1.5,1.6-3.1,1.6c-1.9,0-2.8-1.4-2.8-2.7c0-2.2,1.9-3.6,5.8-3.5v-0.3
			c0-1-0.2-2.9-2.4-2.9c-0.8,0-1.7,0.2-2.4,0.7l-0.3-0.7c0.9-0.6,1.9-0.8,2.8-0.8c2.8,0,3.3,2.1,3.3,3.8v3.8c0,0.8,0,1.6,0.1,2.3
			H349.8z M349.6-562.7c-2.1-0.1-4.8,0.3-4.8,2.6c0,1.4,0.9,2,1.9,2c1.6,0,2.5-1,2.8-1.9c0.1-0.2,0.1-0.4,0.1-0.6V-562.7z"/>
		<path d="M353.6-564.9c0-0.9,0-1.6-0.1-2.3h0.9l0.1,1.7h0c0.6-1.1,1.5-1.9,3.1-1.9c1.3,0,2.3,0.9,2.7,2.1h0c0.3-0.6,0.6-1,1-1.3
			c0.6-0.5,1.3-0.8,2.3-0.8c0.9,0,3.1,0.5,3.1,4.2v5.7h-0.9v-5.6c0-2.2-0.8-3.5-2.5-3.5c-1.2,0-2.1,0.9-2.5,1.9
			c-0.1,0.3-0.2,0.6-0.2,1v6.2h-0.9v-6.1c0-1.7-0.8-3-2.4-3c-1.3,0-2.3,1.1-2.7,2.2c-0.1,0.3-0.1,0.6-0.1,0.9v6h-0.9V-564.9z"/>
		<path d="M375.2-557.5l-0.1-1.4h0c-0.5,0.7-1.5,1.6-3.1,1.6c-1.9,0-2.8-1.4-2.8-2.7c0-2.2,1.9-3.6,5.8-3.5v-0.3
			c0-1-0.2-2.9-2.4-2.9c-0.8,0-1.7,0.2-2.4,0.7l-0.3-0.7c0.9-0.6,1.9-0.8,2.8-0.8c2.8,0,3.3,2.1,3.3,3.8v3.8c0,0.8,0,1.6,0.1,2.3
			H375.2z M375-562.7c-2.1-0.1-4.8,0.3-4.8,2.6c0,1.4,0.9,2,1.9,2c1.6,0,2.5-1,2.8-1.9c0.1-0.2,0.1-0.4,0.1-0.6V-562.7z"/>
		<path d="M379-564.3c0-1,0-2-0.1-2.9h0.9l0,2h0.1c0.4-1.2,1.4-2.2,2.7-2.2c0.1,0,0.3,0,0.4,0v0.9c-0.1,0-0.3,0-0.5,0
			c-1.3,0-2.3,1.2-2.5,2.7c0,0.3-0.1,0.6-0.1,0.9v5.4H379V-564.3z"/>
		<path d="M389.3-571.9h0.9v14.4h-0.9V-571.9z"/>
		<path d="M398.7-557.5l-0.1-1.4h0c-0.5,0.7-1.5,1.6-3.1,1.6c-1.9,0-2.8-1.4-2.8-2.7c0-2.2,1.9-3.6,5.8-3.5v-0.3
			c0-1-0.2-2.9-2.4-2.9c-0.8,0-1.7,0.2-2.4,0.7l-0.3-0.7c0.9-0.6,1.9-0.8,2.8-0.8c2.8,0,3.3,2.1,3.3,3.8v3.8c0,0.8,0,1.6,0.1,2.3
			H398.7z M398.5-562.7c-2.1-0.1-4.8,0.3-4.8,2.6c0,1.4,0.9,2,1.9,2c1.6,0,2.5-1,2.8-1.9c0.1-0.2,0.1-0.4,0.1-0.6V-562.7z"/>
		<path d="M414.6-567.3c0,0.7-0.1,1.5-0.1,2.5v5.8c0,2.5-0.5,3.7-1.3,4.5c-0.9,0.8-2.2,1.1-3.2,1.1c-1.1,0-2.3-0.3-3-0.8l0.3-0.8
			c0.7,0.4,1.6,0.8,2.8,0.8c2,0,3.5-1.1,3.5-3.9v-1.4h0c-0.5,1-1.6,1.9-3.3,1.9c-2.4,0-4.1-2.1-4.1-4.8c0-3.4,2.2-5.2,4.3-5.2
			c1.9,0,2.8,1,3.2,1.9h0l0.1-1.6H414.6z M413.6-563.5c0-0.3,0-0.7-0.1-0.9c-0.4-1.2-1.4-2.2-3-2.2c-2,0-3.4,1.7-3.4,4.3
			c0,2.2,1.1,4.1,3.4,4.1c1.3,0,2.5-0.8,3-2.2c0.1-0.3,0.2-0.7,0.2-1V-563.5z"/>
		<path d="M423-557.5l-0.1-1.4h0c-0.5,0.7-1.5,1.6-3.1,1.6c-1.9,0-2.8-1.4-2.8-2.7c0-2.2,1.9-3.6,5.8-3.5v-0.3c0-1-0.2-2.9-2.4-2.9
			c-0.8,0-1.7,0.2-2.4,0.7l-0.3-0.7c0.9-0.6,1.9-0.8,2.8-0.8c2.8,0,3.3,2.1,3.3,3.8v3.8c0,0.8,0,1.6,0.1,2.3H423z M422.8-562.7
			c-2.1-0.1-4.8,0.3-4.8,2.6c0,1.4,0.9,2,1.9,2c1.6,0,2.5-1,2.8-1.9c0.1-0.2,0.1-0.4,0.1-0.6V-562.7z"/>
		<path d="M426.8-564.3c0-1,0-2-0.1-2.9h0.9l0,2h0.1c0.4-1.2,1.4-2.2,2.7-2.2c0.1,0,0.3,0,0.4,0v0.9c-0.1,0-0.3,0-0.5,0
			c-1.3,0-2.3,1.2-2.5,2.7c0,0.3-0.1,0.6-0.1,0.9v5.4h-0.9V-564.3z"/>
		<path d="M437.9-557.5l-0.1-1.4h0c-0.5,0.7-1.5,1.6-3.1,1.6c-1.9,0-2.8-1.4-2.8-2.7c0-2.2,1.9-3.6,5.8-3.5v-0.3
			c0-1-0.2-2.9-2.4-2.9c-0.8,0-1.7,0.2-2.4,0.7l-0.3-0.7c0.9-0.6,1.9-0.8,2.8-0.8c2.8,0,3.3,2.1,3.3,3.8v3.8c0,0.8,0,1.6,0.1,2.3
			H437.9z M437.7-562.7c-2.1-0.1-4.8,0.3-4.8,2.6c0,1.4,0.9,2,1.9,2c1.6,0,2.5-1,2.8-1.9c0.1-0.2,0.1-0.4,0.1-0.6V-562.7z"/>
		<path d="M441.7-564.9c0-0.9,0-1.6-0.1-2.3h0.9l0.1,1.8h0c0.5-1.1,1.7-2,3.3-2c0.9,0,3.3,0.5,3.3,4.1v5.8h-0.9v-5.7
			c0-1.8-0.7-3.4-2.7-3.4c-1.3,0-2.5,1-2.9,2.2c-0.1,0.2-0.1,0.6-0.1,0.9v6h-0.9V-564.9z"/>
		<path d="M453.7-570.1v2.8h2.7v0.8h-2.7v6.3c0,1.2,0.4,2,1.4,2c0.5,0,0.8-0.1,1.1-0.2l0.1,0.7c-0.3,0.1-0.7,0.2-1.3,0.2
			c-0.7,0-1.3-0.2-1.7-0.7c-0.4-0.5-0.6-1.3-0.6-2.3v-6.1h-1.6v-0.8h1.6v-2.5L453.7-570.1z"/>
		<path d="M459.8-570c0,0.4-0.3,0.8-0.8,0.8c-0.4,0-0.7-0.4-0.7-0.8c0-0.4,0.3-0.8,0.8-0.8C459.5-570.9,459.8-570.5,459.8-570z
			 M458.6-557.5v-9.7h0.9v9.7H458.6z"/>
		<path d="M468-557.5l-0.1-1.4h0c-0.5,0.7-1.5,1.6-3.1,1.6c-1.9,0-2.8-1.4-2.8-2.7c0-2.2,1.9-3.6,5.8-3.5v-0.3c0-1-0.2-2.9-2.4-2.9
			c-0.8,0-1.7,0.2-2.4,0.7l-0.3-0.7c0.9-0.6,1.9-0.8,2.8-0.8c2.8,0,3.3,2.1,3.3,3.8v3.8c0,0.8,0,1.6,0.1,2.3H468z M467.8-562.7
			c-2.1-0.1-4.8,0.3-4.8,2.6c0,1.4,0.9,2,1.9,2c1.6,0,2.5-1,2.8-1.9c0.1-0.2,0.1-0.4,0.1-0.6V-562.7z"/>
		<path d="M476.2-564.2c0-1.2,0-2.2-0.1-3.1h0.9l0.1,1.8h0c0.7-1.3,1.9-2.1,3.5-2.1c2.5,0,4.1,2.1,4.1,4.9c0,3.5-2,5.2-4.4,5.2
			c-1.4,0-2.6-0.6-3.2-1.8h0v5.6h-0.9V-564.2z M477.1-561.4c0,0.3,0,0.5,0.1,0.8c0.4,1.5,1.7,2.5,3.1,2.5c2.2,0,3.5-1.8,3.5-4.4
			c0-2.2-1.2-4.2-3.4-4.2c-1.4,0-2.7,1-3.2,2.6c-0.1,0.3-0.1,0.6-0.1,0.8V-561.4z"/>
		<path d="M495.3-562.5c0,3.6-2.4,5.2-4.6,5.2c-2.5,0-4.4-2-4.4-5c0-3.3,2.1-5.2,4.5-5.2C493.5-567.5,495.3-565.5,495.3-562.5z
			 M487.3-562.4c0,2.4,1.5,4.2,3.5,4.2c2,0,3.6-1.8,3.6-4.3c0-1.8-1-4.2-3.5-4.2C488.4-566.7,487.3-564.5,487.3-562.4z"/>
		<path d="M497.8-564.3c0-1,0-2-0.1-2.9h0.9l0,2h0.1c0.4-1.2,1.4-2.2,2.7-2.2c0.1,0,0.3,0,0.4,0v0.9c-0.1,0-0.3,0-0.5,0
			c-1.3,0-2.3,1.2-2.5,2.7c-0.1,0.3-0.1,0.6-0.1,0.9v5.4h-0.9V-564.3z"/>
		<path d="M514.7-559.2L514.7-559.2c-0.5,1-1.7,1.9-3.4,1.9c-2.3,0-4.1-2-4.1-4.9c0-3.7,2.4-5.3,4.4-5.3c1.7,0,2.7,0.9,3.1,1.9h0
			l0.1-1.7h0.9c-0.1,0.7-0.1,1.5-0.1,2.5v11.2h-0.9V-559.2z M514.7-563.4c0-0.3,0-0.6-0.1-0.9c-0.3-1.3-1.4-2.4-3-2.4
			c-2.1,0-3.4,1.8-3.4,4.3c0,2.1,1,4.2,3.4,4.2c1.3,0,2.5-0.8,3-2.3c0.1-0.3,0.2-0.7,0.2-1V-563.4z"/>
		<path d="M526.2-559.9c0,0.9,0,1.6,0.1,2.4h-0.9l-0.1-1.7h0c-0.5,0.9-1.6,1.9-3.3,1.9c-1.2,0-3.3-0.6-3.3-4.3v-5.7h0.9v5.5
			c0,2.1,0.6,3.6,2.5,3.6c1.4,0,2.4-1,2.8-2c0.1-0.3,0.2-0.7,0.2-1.1v-6h0.9V-559.9z"/>
		<path d="M529.6-562.5c0,3.1,1.7,4.3,3.6,4.3c1.4,0,2.1-0.3,2.7-0.6l0.2,0.8c-0.4,0.2-1.4,0.6-3,0.6c-2.8,0-4.5-2-4.5-4.9
			c0-3.2,1.8-5.3,4.3-5.3c3.1,0,3.7,3,3.7,4.4c0,0.3,0,0.4,0,0.6H529.6z M535.7-563.3c0-1.4-0.5-3.4-2.9-3.4c-2.1,0-3,1.9-3.2,3.4
			H535.7z"/>
		<path d="M543.5-571.9h0.9v14.4h-0.9V-571.9z"/>
		<path d="M552.9-557.5l-0.1-1.4h0c-0.5,0.7-1.5,1.6-3.1,1.6c-1.9,0-2.8-1.4-2.8-2.7c0-2.2,1.9-3.6,5.8-3.5v-0.3
			c0-1-0.2-2.9-2.4-2.9c-0.8,0-1.7,0.2-2.4,0.7l-0.3-0.7c0.9-0.6,1.9-0.8,2.8-0.8c2.8,0,3.3,2.1,3.3,3.8v3.8c0,0.8,0,1.6,0.1,2.3
			H552.9z M552.7-562.7c-2.1-0.1-4.8,0.3-4.8,2.6c0,1.4,0.9,2,1.9,2c1.6,0,2.5-1,2.8-1.9c0.1-0.2,0.1-0.4,0.1-0.6V-562.7z"/>
		<path d="M268.2-534.6c0.5,0.3,1.3,0.7,2.2,0.7c1.5,0,2.2-0.8,2.2-1.8c0-1.1-0.6-1.6-2-2.2c-1.6-0.6-2.4-1.5-2.4-2.7
			c0-1.4,1.1-2.6,2.9-2.6c0.9,0,1.6,0.3,2.1,0.6l-0.4,0.8c-0.3-0.2-0.9-0.6-1.9-0.6c-1.2,0-1.9,0.8-1.9,1.7c0,1,0.7,1.4,2,2
			c1.5,0.6,2.5,1.4,2.5,2.9c0,1.7-1.3,2.8-3.2,2.8c-0.9,0-1.8-0.3-2.4-0.7L268.2-534.6z"/>
		<path d="M283.4-535.7c0,0.9,0,1.6,0.1,2.4h-0.9l-0.1-1.7h0c-0.5,0.9-1.6,1.9-3.3,1.9c-1.2,0-3.3-0.6-3.3-4.3v-5.7h0.9v5.5
			c0,2.1,0.6,3.6,2.5,3.6c1.4,0,2.4-1,2.8-2c0.1-0.3,0.2-0.7,0.2-1.1v-6h0.9V-535.7z"/>
		<path d="M286.8-538.2c0,3.1,1.7,4.3,3.6,4.3c1.4,0,2.1-0.3,2.7-0.6l0.2,0.8c-0.4,0.2-1.4,0.6-3,0.6c-2.8,0-4.5-2-4.5-4.9
			c0-3.2,1.8-5.3,4.3-5.3c3.1,0,3.7,3,3.7,4.4c0,0.3,0,0.4,0,0.6H286.8z M292.9-539c0-1.4-0.5-3.4-2.9-3.4c-2.1,0-3,1.9-3.2,3.4
			H292.9z"/>
		<path d="M296.3-547.6h0.9v14.4h-0.9V-547.6z"/>
		<path d="M305.7-533.3l-0.1-1.4h0c-0.5,0.7-1.5,1.6-3.1,1.6c-1.9,0-2.8-1.4-2.8-2.7c0-2.2,1.9-3.6,5.8-3.5v-0.3
			c0-1-0.2-2.9-2.4-2.9c-0.8,0-1.7,0.2-2.4,0.7l-0.3-0.7c0.9-0.6,1.9-0.8,2.8-0.8c2.8,0,3.3,2.1,3.3,3.8v3.8c0,0.8,0,1.6,0.1,2.3
			H305.7z M305.5-538.5c-2.1-0.1-4.8,0.3-4.8,2.6c0,1.4,0.9,2,1.9,2c1.6,0,2.5-1,2.8-1.9c0.1-0.2,0.1-0.4,0.1-0.6V-538.5z"/>
		<path d="M321.6-547.6v12.1c0,0.7,0,1.6,0.1,2.3h-0.9l-0.1-1.8h0c-0.5,1.1-1.6,2.1-3.4,2.1c-2.4,0-4.1-2-4.1-4.9
			c0-3.2,1.9-5.3,4.3-5.3c1.7,0,2.7,0.9,3.1,1.7h0v-6.1H321.6z M320.6-539.2c0-0.3,0-0.6-0.1-0.9c-0.3-1.3-1.5-2.4-3-2.4
			c-2.1,0-3.4,1.8-3.4,4.4c0,2.2,1.1,4.2,3.4,4.2c1.4,0,2.7-0.9,3.1-2.5c0.1-0.2,0.1-0.5,0.1-0.8V-539.2z"/>
		<path d="M324.9-538.2c0,3.1,1.7,4.3,3.6,4.3c1.4,0,2.1-0.3,2.7-0.6l0.2,0.8c-0.4,0.2-1.4,0.6-3,0.6c-2.8,0-4.5-2-4.5-4.9
			c0-3.2,1.8-5.3,4.3-5.3c3.1,0,3.7,3,3.7,4.4c0,0.3,0,0.4,0,0.6H324.9z M331-539c0-1.4-0.5-3.4-2.9-3.4c-2.1,0-3,1.9-3.2,3.4H331z"
			/>
		<path d="M334.5-547.6h0.9v14.4h-0.9V-547.6z"/>
		<path d="M341.8-533.9l5.2-6.9c0.4-0.5,0.7-0.9,1.1-1.4v0h-5.8v-0.8h7l0,0.7l-5.2,6.9c-0.3,0.5-0.7,0.9-1,1.3v0h6.2v0.8h-7.4
			V-533.9z"/>
		<path d="M356.3-533.3l-0.1-1.4h0c-0.5,0.7-1.5,1.6-3.1,1.6c-1.9,0-2.8-1.4-2.8-2.7c0-2.2,1.9-3.6,5.8-3.5v-0.3
			c0-1-0.2-2.9-2.4-2.9c-0.8,0-1.7,0.2-2.4,0.7l-0.3-0.7c0.9-0.6,1.9-0.8,2.8-0.8c2.8,0,3.3,2.1,3.3,3.8v3.8c0,0.8,0,1.6,0.1,2.3
			H356.3z M356.1-538.5c-2.1-0.1-4.8,0.3-4.8,2.6c0,1.4,0.9,2,1.9,2c1.6,0,2.5-1,2.8-1.9c0.1-0.2,0.1-0.4,0.1-0.6V-538.5z"/>
		<path d="M360.1-539.9c0-1.2,0-2.2-0.1-3.1h0.9l0.1,1.8h0c0.7-1.3,1.9-2.1,3.5-2.1c2.5,0,4.1,2.1,4.1,4.9c0,3.5-2,5.2-4.4,5.2
			c-1.4,0-2.6-0.6-3.2-1.8h0v5.6h-0.9V-539.9z M361.1-537.1c0,0.3,0,0.5,0.1,0.8c0.4,1.5,1.7,2.5,3.1,2.5c2.2,0,3.5-1.8,3.5-4.4
			c0-2.2-1.2-4.2-3.4-4.2c-1.4,0-2.7,1-3.2,2.6c-0.1,0.3-0.1,0.6-0.1,0.8V-537.1z"/>
		<path d="M376.4-533.3l-0.1-1.4h0c-0.5,0.7-1.5,1.6-3.1,1.6c-1.9,0-2.8-1.4-2.8-2.7c0-2.2,1.9-3.6,5.8-3.5v-0.3
			c0-1-0.2-2.9-2.4-2.9c-0.8,0-1.7,0.2-2.4,0.7l-0.3-0.7c0.9-0.6,1.9-0.8,2.8-0.8c2.8,0,3.3,2.1,3.3,3.8v3.8c0,0.8,0,1.6,0.1,2.3
			H376.4z M376.1-538.5c-2.1-0.1-4.8,0.3-4.8,2.6c0,1.4,0.9,2,1.9,2c1.6,0,2.5-1,2.8-1.9c0.1-0.2,0.1-0.4,0.1-0.6V-538.5z"/>
		<path d="M381.5-545.8v2.8h2.7v0.8h-2.7v6.3c0,1.2,0.4,2,1.4,2c0.5,0,0.8-0.1,1.1-0.2l0.1,0.7c-0.3,0.1-0.7,0.2-1.3,0.2
			c-0.7,0-1.3-0.2-1.7-0.7c-0.4-0.5-0.6-1.3-0.6-2.3v-6.1h-1.6v-0.8h1.6v-2.5L381.5-545.8z"/>
		<path d="M394.5-538.2c0,3.6-2.4,5.2-4.6,5.2c-2.5,0-4.4-2-4.4-5c0-3.3,2.1-5.2,4.5-5.2C392.7-543.2,394.5-541.2,394.5-538.2z
			 M386.5-538.1c0,2.4,1.5,4.2,3.5,4.2c2,0,3.6-1.8,3.6-4.3c0-1.8-1-4.2-3.5-4.2C387.6-542.4,386.5-540.2,386.5-538.1z"/>
		<path d="M400.9-534.6c0.5,0.3,1.3,0.7,2.2,0.7c1.5,0,2.2-0.8,2.2-1.8c0-1.1-0.6-1.6-2-2.2c-1.6-0.6-2.4-1.5-2.4-2.7
			c0-1.4,1.1-2.6,2.9-2.6c0.9,0,1.6,0.3,2.1,0.6l-0.4,0.8c-0.3-0.2-0.9-0.6-1.9-0.6c-1.2,0-1.9,0.8-1.9,1.7c0,1,0.7,1.4,2,2
			c1.5,0.6,2.5,1.4,2.5,2.9c0,1.7-1.3,2.8-3.2,2.8c-0.9,0-1.8-0.3-2.4-0.7L400.9-534.6z"/>
		<path d="M408.9-538.2c0,3.1,1.7,4.3,3.6,4.3c1.4,0,2.1-0.3,2.7-0.6l0.2,0.8c-0.4,0.2-1.4,0.6-3,0.6c-2.8,0-4.5-2-4.5-4.9
			c0-3.2,1.8-5.3,4.3-5.3c3.1,0,3.7,3,3.7,4.4c0,0.3,0,0.4,0,0.6H408.9z M415-539c0-1.4-0.5-3.4-2.9-3.4c-2.1,0-3,1.9-3.2,3.4H415z"
			/>
		<path d="M429.5-535L429.5-535c-0.5,1-1.7,1.9-3.4,1.9c-2.3,0-4.1-2-4.1-4.9c0-3.7,2.4-5.3,4.4-5.3c1.7,0,2.7,0.9,3.1,1.9h0
			l0.1-1.7h0.9c0,0.7-0.1,1.5-0.1,2.5v11.2h-0.9V-535z M429.5-539.2c0-0.3,0-0.6-0.1-0.9c-0.3-1.3-1.4-2.4-3-2.4
			c-2.1,0-3.4,1.8-3.4,4.3c0,2.1,1,4.2,3.4,4.2c1.3,0,2.5-0.8,3-2.3c0.1-0.3,0.2-0.7,0.2-1V-539.2z"/>
		<path d="M441-535.7c0,0.9,0,1.6,0.1,2.4h-0.9l-0.1-1.7h0c-0.5,0.9-1.6,1.9-3.3,1.9c-1.2,0-3.3-0.6-3.3-4.3v-5.7h0.9v5.5
			c0,2.1,0.6,3.6,2.5,3.6c1.4,0,2.4-1,2.8-2c0.1-0.3,0.2-0.7,0.2-1.1v-6h0.9V-535.7z"/>
		<path d="M444.3-538.2c0,3.1,1.7,4.3,3.6,4.3c1.4,0,2.1-0.3,2.7-0.6l0.2,0.8c-0.4,0.2-1.4,0.6-3,0.6c-2.8,0-4.5-2-4.5-4.9
			c0-3.2,1.8-5.3,4.3-5.3c3.1,0,3.7,3,3.7,4.4c0,0.3,0,0.4,0,0.6H444.3z M450.4-539c0-1.4-0.5-3.4-2.9-3.4c-2.1,0-3,1.9-3.2,3.4
			H450.4z"/>
		<path d="M453.8-533.3c0-0.7,0.1-1.5,0.1-2.3v-12.1h0.9v6.5h0c0.6-1.3,1.8-2,3.5-2c2.4,0,4.1,2.1,4.1,5c0,3.5-2.2,5.2-4.3,5.2
			c-1.5,0-2.7-0.6-3.4-2h0l-0.1,1.7H453.8z M454.8-537c0,0.2,0,0.5,0.1,0.7c0.4,1.5,1.7,2.5,3.2,2.5c2.2,0,3.4-1.8,3.4-4.4
			c0-2.2-1.2-4.2-3.4-4.2c-1.4,0-2.7,1-3.2,2.6c-0.1,0.2-0.1,0.5-0.1,0.8V-537z"/>
		<path d="M464.9-540.1c0-1,0-2-0.1-2.9h0.9l0,2h0.1c0.4-1.2,1.4-2.2,2.7-2.2c0.1,0,0.3,0,0.4,0v0.9c-0.1,0-0.3,0-0.5,0
			c-1.3,0-2.3,1.2-2.5,2.7c-0.1,0.3-0.1,0.6-0.1,0.9v5.4h-0.9V-540.1z"/>
		<path d="M478.9-538.2c0,3.6-2.4,5.2-4.6,5.2c-2.5,0-4.4-2-4.4-5c0-3.3,2.1-5.2,4.5-5.2C477.1-543.2,478.9-541.2,478.9-538.2z
			 M470.9-538.1c0,2.4,1.5,4.2,3.5,4.2c2,0,3.6-1.8,3.6-4.3c0-1.8-1-4.2-3.5-4.2C472-542.4,470.9-540.2,470.9-538.1z"/>
		<path d="M485.7-539.9c0-1.2,0-2.2-0.1-3.1h0.9l0.1,1.8h0c0.7-1.3,1.9-2.1,3.5-2.1c2.5,0,4.1,2.1,4.1,4.9c0,3.5-2,5.2-4.4,5.2
			c-1.4,0-2.6-0.6-3.2-1.8h0v5.6h-0.9V-539.9z M486.7-537.1c0,0.3,0,0.5,0.1,0.8c0.4,1.5,1.7,2.5,3.1,2.5c2.2,0,3.5-1.8,3.5-4.4
			c0-2.2-1.2-4.2-3.4-4.2c-1.4,0-2.7,1-3.2,2.6c-0.1,0.3-0.1,0.6-0.1,0.8V-537.1z"/>
		<path d="M504.9-538.2c0,3.6-2.4,5.2-4.6,5.2c-2.5,0-4.4-2-4.4-5c0-3.3,2.1-5.2,4.5-5.2C503.1-543.2,504.9-541.2,504.9-538.2z
			 M496.9-538.1c0,2.4,1.5,4.2,3.5,4.2c2,0,3.6-1.8,3.6-4.3c0-1.8-1-4.2-3.5-4.2C498-542.4,496.9-540.2,496.9-538.1z"/>
		<path d="M507.3-540.1c0-1,0-2-0.1-2.9h0.9l0,2h0.1c0.4-1.2,1.4-2.2,2.7-2.2c0.1,0,0.3,0,0.4,0v0.9c-0.1,0-0.3,0-0.5,0
			c-1.3,0-2.3,1.2-2.5,2.7c0,0.3-0.1,0.6-0.1,0.9v5.4h-0.9V-540.1z"/>
		<path d="M517.6-547.6h0.9v14.4h-0.9V-547.6z"/>
		<path d="M527-533.3l-0.1-1.4h0c-0.5,0.7-1.5,1.6-3.1,1.6c-1.9,0-2.8-1.4-2.8-2.7c0-2.2,1.9-3.6,5.8-3.5v-0.3c0-1-0.2-2.9-2.4-2.9
			c-0.8,0-1.7,0.2-2.4,0.7l-0.3-0.7c0.9-0.6,1.9-0.8,2.8-0.8c2.8,0,3.3,2.1,3.3,3.8v3.8c0,0.8,0,1.6,0.1,2.3H527z M526.8-538.5
			c-2.1-0.1-4.8,0.3-4.8,2.6c0,1.4,0.9,2,1.9,2c1.6,0,2.5-1,2.8-1.9c0.1-0.2,0.1-0.4,0.1-0.6V-538.5z"/>
		<path d="M268.6-516.4c0-0.9,0-1.6-0.1-2.3h0.9l0.1,1.7h0c0.6-1.1,1.5-1.9,3.1-1.9c1.3,0,2.3,0.9,2.7,2.1h0c0.3-0.6,0.6-1,1-1.3
			c0.6-0.5,1.3-0.8,2.3-0.8c0.9,0,3.1,0.5,3.1,4.2v5.7h-0.9v-5.6c0-2.2-0.8-3.5-2.5-3.5c-1.2,0-2.1,0.9-2.5,1.9
			c-0.1,0.3-0.2,0.6-0.2,1v6.2h-0.9v-6.1c0-1.7-0.8-3-2.4-3c-1.3,0-2.3,1.1-2.7,2.2c-0.1,0.3-0.1,0.6-0.1,0.9v6h-0.9V-516.4z"/>
		<path d="M286.2-521.5c0,0.4-0.3,0.8-0.8,0.8c-0.4,0-0.7-0.4-0.7-0.8c0-0.4,0.3-0.8,0.8-0.8C285.9-522.3,286.2-522,286.2-521.5z
			 M284.9-509v-9.7h0.9v9.7H284.9z"/>
		<path d="M290.4-521.5v2.8h2.7v0.8h-2.7v6.3c0,1.2,0.4,2,1.4,2c0.5,0,0.8-0.1,1.1-0.2l0.1,0.7c-0.3,0.1-0.7,0.2-1.3,0.2
			c-0.7,0-1.3-0.2-1.7-0.7c-0.4-0.5-0.6-1.3-0.6-2.3v-6.1h-1.6v-0.8h1.6v-2.5L290.4-521.5z"/>
		<path d="M300.5-509l-0.1-1.4h0c-0.5,0.7-1.5,1.6-3.1,1.6c-1.9,0-2.8-1.4-2.8-2.7c0-2.2,1.9-3.6,5.8-3.5v-0.3c0-1-0.2-2.9-2.4-2.9
			c-0.8,0-1.7,0.2-2.4,0.7l-0.3-0.7c0.9-0.6,1.9-0.8,2.8-0.8c2.8,0,3.3,2.1,3.3,3.8v3.8c0,0.8,0,1.6,0.1,2.3H300.5z M300.3-514.2
			c-2.1-0.1-4.8,0.3-4.8,2.6c0,1.4,0.9,2,1.9,2c1.6,0,2.5-1,2.8-1.9c0.1-0.2,0.1-0.4,0.1-0.6V-514.2z"/>
		<path d="M311.9-523.4v12.1c0,0.7,0,1.6,0.1,2.3h-0.9l-0.1-1.8h0c-0.5,1.1-1.6,2.1-3.4,2.1c-2.4,0-4.1-2-4.1-4.9
			c0-3.2,1.9-5.3,4.3-5.3c1.7,0,2.7,0.9,3.1,1.7h0v-6.1H311.9z M311-514.9c0-0.3,0-0.6-0.1-0.9c-0.3-1.3-1.5-2.4-3-2.4
			c-2.1,0-3.4,1.8-3.4,4.4c0,2.2,1.1,4.2,3.4,4.2c1.4,0,2.7-0.9,3.1-2.5c0.1-0.2,0.1-0.5,0.1-0.8V-514.9z"/>
		<path d="M314.6-509.7c0-0.5,0.3-0.9,0.8-0.9c0.5,0,0.8,0.4,0.8,0.9c0,0.5-0.3,0.9-0.8,0.9C314.9-508.8,314.6-509.2,314.6-509.7z"
			/>
		<path d="M324.6-513.8L323-509h-1l4.9-13.6h0.9l4.8,13.6h-1l-1.7-4.8H324.6z M329.6-514.6l-1.6-4.6c-0.3-0.9-0.5-1.6-0.7-2.4h0
			c-0.2,0.8-0.4,1.5-0.7,2.4l-1.6,4.6H329.6z"/>
		<path d="M342.3-523.4v12.1c0,0.7,0,1.6,0.1,2.3h-0.9l-0.1-1.8h-0.1c-0.5,1.1-1.6,2.1-3.4,2.1c-2.4,0-4.1-2-4.1-4.9
			c0-3.2,1.9-5.3,4.3-5.3c1.7,0,2.7,0.9,3.1,1.7h0v-6.1H342.3z M341.3-514.9c0-0.3,0-0.6-0.1-0.9c-0.3-1.3-1.5-2.4-3-2.4
			c-2.1,0-3.4,1.8-3.4,4.4c0,2.2,1.1,4.2,3.4,4.2c1.4,0,2.7-0.9,3.1-2.5c0.1-0.2,0.1-0.5,0.1-0.8V-514.9z"/>
		<path d="M342.9-505.6c0.8-0.1,1.5-0.3,2-0.8c0.5-0.6,0.7-1.4,0.7-3.9v-8.4h0.9v9c0,1.7-0.2,2.9-1,3.9c-0.7,0.8-1.9,1-2.5,1
			L342.9-505.6z M346.9-521.5c0,0.4-0.3,0.8-0.8,0.8c-0.5,0-0.7-0.4-0.7-0.8c0-0.4,0.3-0.8,0.8-0.8
			C346.6-522.3,346.9-522,346.9-521.5z"/>
		<path d="M357.1-511.4c0,0.9,0,1.6,0.1,2.4h-0.9l-0.1-1.7h0c-0.5,0.9-1.6,1.9-3.3,1.9c-1.2,0-3.3-0.6-3.3-4.3v-5.7h0.9v5.5
			c0,2.1,0.6,3.6,2.5,3.6c1.4,0,2.4-1,2.8-2c0.1-0.3,0.2-0.7,0.2-1.1v-6h0.9V-511.4z"/>
		<path d="M360.4-516.4c0-0.9,0-1.6-0.1-2.3h0.9l0.1,1.8h0c0.5-1.1,1.7-2,3.3-2c0.9,0,3.3,0.5,3.3,4.1v5.8H367v-5.7
			c0-1.8-0.7-3.4-2.7-3.4c-1.3,0-2.5,1-2.9,2.2c-0.1,0.2-0.1,0.6-0.1,0.9v6h-0.9V-516.4z"/>
		<path d="M372.4-521.5v2.8h2.7v0.8h-2.7v6.3c0,1.2,0.4,2,1.4,2c0.5,0,0.8-0.1,1.1-0.2l0.1,0.7c-0.3,0.1-0.7,0.2-1.3,0.2
			c-0.7,0-1.3-0.2-1.7-0.7c-0.4-0.5-0.6-1.3-0.6-2.3v-6.1h-1.6v-0.8h1.6v-2.5L372.4-521.5z"/>
		<path d="M385.4-514c0,3.6-2.4,5.2-4.6,5.2c-2.5,0-4.4-2-4.4-5c0-3.3,2.1-5.2,4.5-5.2C383.6-519,385.4-516.9,385.4-514z
			 M377.4-513.9c0,2.4,1.5,4.2,3.5,4.2c2,0,3.6-1.8,3.6-4.3c0-1.8-1-4.2-3.5-4.2C378.5-518.2,377.4-515.9,377.4-513.9z"/>
		<path d="M392.2-523.4h0.9v14.4h-0.9V-523.4z"/>
		<path d="M401.6-509l-0.1-1.4h0c-0.5,0.7-1.5,1.6-3.1,1.6c-1.9,0-2.8-1.4-2.8-2.7c0-2.2,1.9-3.6,5.8-3.5v-0.3c0-1-0.2-2.9-2.4-2.9
			c-0.8,0-1.7,0.2-2.4,0.7l-0.3-0.7c0.9-0.6,1.9-0.8,2.8-0.8c2.8,0,3.3,2.1,3.3,3.8v3.8c0,0.8,0,1.6,0.1,2.3H401.6z M401.4-514.2
			c-2.1-0.1-4.8,0.3-4.8,2.6c0,1.4,0.9,2,1.9,2c1.6,0,2.5-1,2.8-1.9c0.1-0.2,0.1-0.4,0.1-0.6V-514.2z"/>
		<path d="M405.1-510.3c0.5,0.3,1.3,0.7,2.2,0.7c1.5,0,2.2-0.8,2.2-1.8c0-1.1-0.6-1.6-2-2.2c-1.6-0.6-2.4-1.5-2.4-2.7
			c0-1.4,1.1-2.6,2.9-2.6c0.9,0,1.6,0.3,2.1,0.6l-0.4,0.8c-0.3-0.2-0.9-0.6-1.9-0.6c-1.2,0-1.9,0.8-1.9,1.7c0,1,0.7,1.4,2,2
			c1.5,0.6,2.5,1.4,2.5,2.9c0,1.7-1.3,2.8-3.2,2.8c-0.9,0-1.8-0.3-2.4-0.7L405.1-510.3z"/>
		<path d="M417.3-515.6c0-1.2,0-2.2-0.1-3.1h0.9l0.1,1.8h0c0.7-1.3,1.9-2.1,3.5-2.1c2.5,0,4.1,2.1,4.1,4.9c0,3.5-2,5.2-4.4,5.2
			c-1.4,0-2.6-0.6-3.2-1.8h0v5.6h-0.9V-515.6z M418.2-512.9c0,0.3,0,0.5,0.1,0.8c0.4,1.5,1.7,2.5,3.1,2.5c2.2,0,3.5-1.8,3.5-4.4
			c0-2.2-1.2-4.2-3.4-4.2c-1.4,0-2.7,1-3.2,2.6c-0.1,0.3-0.1,0.6-0.1,0.8V-512.9z"/>
		<path d="M428.3-515.8c0-1,0-2-0.1-2.9h0.9l0,2h0.1c0.4-1.2,1.4-2.2,2.7-2.2c0.1,0,0.3,0,0.4,0v0.9c-0.1,0-0.3,0-0.5,0
			c-1.3,0-2.3,1.2-2.5,2.7c0,0.3-0.1,0.6-0.1,0.9v5.4h-0.9V-515.8z"/>
		<path d="M434.3-514c0,3.1,1.7,4.3,3.6,4.3c1.4,0,2.1-0.3,2.7-0.6l0.2,0.8c-0.4,0.2-1.4,0.6-3,0.6c-2.8,0-4.5-2-4.5-4.9
			c0-3.2,1.8-5.3,4.3-5.3c3.1,0,3.7,3,3.7,4.4c0,0.3,0,0.4,0,0.6H434.3z M440.4-514.7c0-1.4-0.5-3.4-2.9-3.4c-2.1,0-3,1.9-3.2,3.4
			H440.4z"/>
		<path d="M451.2-511.4c0,0.9,0,1.6,0.1,2.4h-0.9l-0.1-1.7h0c-0.5,0.9-1.6,1.9-3.3,1.9c-1.2,0-3.3-0.6-3.3-4.3v-5.7h0.9v5.5
			c0,2.1,0.6,3.6,2.5,3.6c1.4,0,2.4-1,2.8-2c0.1-0.3,0.2-0.7,0.2-1.1v-6h0.9V-511.4z"/>
		<path d="M454.3-509c0-0.7,0.1-1.5,0.1-2.3v-12.1h0.9v6.5h0c0.6-1.3,1.8-2,3.5-2c2.4,0,4.1,2.1,4.1,5c0,3.5-2.2,5.2-4.3,5.2
			c-1.5,0-2.7-0.6-3.4-2h0l-0.1,1.7H454.3z M455.3-512.8c0,0.2,0,0.5,0.1,0.7c0.4,1.5,1.6,2.5,3.2,2.5c2.2,0,3.4-1.8,3.4-4.4
			c0-2.2-1.2-4.2-3.4-4.2c-1.4,0-2.7,1-3.2,2.6c-0.1,0.2-0.1,0.5-0.1,0.8V-512.8z"/>
		<path d="M470.6-509l-0.1-1.4h0c-0.5,0.7-1.5,1.6-3.1,1.6c-1.9,0-2.8-1.4-2.8-2.7c0-2.2,1.9-3.6,5.8-3.5v-0.3c0-1-0.2-2.9-2.4-2.9
			c-0.8,0-1.7,0.2-2.4,0.7l-0.3-0.7c0.9-0.6,1.9-0.8,2.8-0.8c2.8,0,3.3,2.1,3.3,3.8v3.8c0,0.8,0,1.6,0.1,2.3H470.6z M470.4-514.2
			c-2.1-0.1-4.8,0.3-4.8,2.6c0,1.4,0.9,2,1.9,2c1.6,0,2.5-1,2.8-1.9c0.1-0.2,0.1-0.4,0.1-0.6V-514.2z"/>
		<path d="M474.1-510.3c0.5,0.3,1.3,0.7,2.2,0.7c1.5,0,2.2-0.8,2.2-1.8c0-1.1-0.6-1.6-2-2.2c-1.6-0.6-2.4-1.5-2.4-2.7
			c0-1.4,1.1-2.6,2.9-2.6c0.9,0,1.6,0.3,2.1,0.6l-0.4,0.8c-0.3-0.2-0.9-0.6-1.9-0.6c-1.2,0-1.9,0.8-1.9,1.7c0,1,0.7,1.4,2,2
			c1.5,0.6,2.5,1.4,2.5,2.9c0,1.7-1.3,2.8-3.2,2.8c-0.9,0-1.8-0.3-2.4-0.7L474.1-510.3z"/>
		<path d="M481.3-509.7c0-0.5,0.3-0.9,0.8-0.9c0.5,0,0.8,0.4,0.8,0.9c0,0.5-0.3,0.9-0.8,0.9C481.7-508.8,481.3-509.2,481.3-509.7z"
			/>
	</g>
</g>
<text transform="matrix(0.9862 0 0 1 266.9995 -441.805)" class="st1" style="font-family:'MyriadPro-Regular'; font-size:16px;">Tus pruebas:</text>
</svg>
