<svg id="Capa_1" data-name="Capa 1" xmlns="http://www.w3.org/2000/svg" viewBox="0 0 181 168.45"><title>edit-pencil</title><path d="M147.12,45.26,121.65,20.62a7.35,7.35,0,0,0-10.3.08L11.71,120.34a7.55,7.55,0,0,0-2.21,5.34v25A6.32,6.32,0,0,0,15.81,157h27a7.57,7.57,0,0,0,5.34-2.21l99.05-99A7.36,7.36,0,0,0,147.12,45.26ZM118.17,27l22.66,21.93a2.31,2.31,0,0,1,0,3.28L128.5,64.55,103,39l12-12A2.31,2.31,0,0,1,118.17,27ZM16.5,150V125.45L98,44,123.55,69.5,43.05,150Z" transform="translate(-9.5 -18.55)"/><rect y="161.45" width="181" height="7" rx="3.5"/></svg>