<svg id="Capa_1" data-name="Capa 1" xmlns="http://www.w3.org/2000/svg" viewBox="0 0 184 171.45"><title>edit-pencil-10px</title><path d="M15.81,158.5A7.83,7.83,0,0,1,8,150.69v-25a9,9,0,0,1,2.65-6.4l99.64-99.64a8.85,8.85,0,0,1,12.41-.1l25.47,24.65a8.85,8.85,0,0,1,.1,12.61L49.22,155.85a9,9,0,0,1-6.4,2.65Zm26.62-10,79-79L98,46.07l-80,80V148.5ZM128.5,62.43l11.3-11.3a.81.81,0,0,0,0-1.14L117.12,28.06a.81.81,0,0,0-1.12,0L105.07,39Z" transform="translate(-8 -17.05)"/><path d="M13,188.5a5,5,0,0,1,0-10H187a5,5,0,0,1,0,10Z" transform="translate(-8 -17.05)"/></svg>