<svg id="Capa_1" data-name="Capa 1" xmlns="http://www.w3.org/2000/svg" viewBox="0 0 175.9 175.9"><defs><style>.cls-1{fill:#fff;}.cls-2{fill:#ed1e79;stroke:#ed1e79;stroke-miterlimit:10;stroke-width:3px;}</style></defs><title>favoriteIcon</title><circle class="cls-1" cx="87.9" cy="87.9" r="87.9"/><path class="cls-2" d="M134.1,75.4a23.7,23.7,0,0,0-45.2-9.7,23.6,23.6,0,0,0-45.1,9.7,25.6,25.6,0,0,0,1.3,7.9,23.5,23.5,0,0,0,4.4,7.5,17.2,17.2,0,0,0,2.7,2.7l36,35.8a1.2,1.2,0,0,0,1.6,0l37.4-37.2h0a24.4,24.4,0,0,0,5.5-8.6A23.8,23.8,0,0,0,134.1,75.4Z" transform="translate(-1 -2.8)"/></svg>