<svg id="Capa_1" data-name="Capa 1" xmlns="http://www.w3.org/2000/svg" viewBox="0 0 185 187"><title>filter</title><path d="M193,31a3.5,3.5,0,0,0-3.5-3.5H77.81a24.49,24.49,0,0,0-48.62,0H11.5A3.5,3.5,0,0,0,8,31H8a3.5,3.5,0,0,0,3.5,3.5H29.33a24.5,24.5,0,0,0,48.34,0H189.5A3.5,3.5,0,0,0,193,31ZM29.06,28.91a.41.41,0,0,0,0,.11A.41.41,0,0,1,29.06,28.91Zm0,3.47c0,.08,0,.16,0,.24C29.09,32.54,29.09,32.46,29.08,32.38ZM55.29,47.91A17.5,17.5,0,1,1,70.91,32.29,17.52,17.52,0,0,1,55.29,47.91ZM77.9,32.62c0-.08,0-.16,0-.24C77.91,32.46,77.91,32.54,77.9,32.62Zm0-3.71A.41.41,0,0,1,78,29,.41.41,0,0,0,77.94,28.91Z" transform="translate(-8 -6)"/><path d="M170.67,96.5h0a24.5,24.5,0,0,0-48.34,0H11.5A3.5,3.5,0,0,0,8,100H8a3.5,3.5,0,0,0,3.5,3.5H122.19a24.49,24.49,0,0,0,48.62,0H189.5A3.5,3.5,0,0,0,193,100h0a3.5,3.5,0,0,0-3.5-3.5ZM122.1,98.38c0,.08,0,.16,0,.24C122.09,98.54,122.09,98.46,122.1,98.38Zm0,3.6a.41.41,0,0,0,0,.11A.41.41,0,0,1,122.05,102Zm26.24,15.93a17.5,17.5,0,1,1,15.62-15.62A17.52,17.52,0,0,1,148.29,117.91Zm22.65-15.82a.41.41,0,0,0,0-.11A.41.41,0,0,1,170.94,102.09Zm0-3.71c0,.08,0,.16,0,.24C170.91,98.54,170.91,98.46,170.9,98.38Z" transform="translate(-8 -6)"/><path d="M124.81,165.5h0a24.49,24.49,0,0,0-48.62,0H11.5A3.5,3.5,0,0,0,8,169H8a3.5,3.5,0,0,0,3.5,3.5H76.33a24.5,24.5,0,0,0,48.34,0H189.5A3.5,3.5,0,0,0,193,169h0a3.5,3.5,0,0,0-3.5-3.5Zm-48.75,1.41a.41.41,0,0,0,0,.11A.41.41,0,0,1,76.06,166.91Zm0,3.47c0,.08,0,.16,0,.24C76.09,170.54,76.09,170.46,76.08,170.38Zm26.21,15.53a17.5,17.5,0,1,1,15.62-15.62A17.52,17.52,0,0,1,102.29,185.91Zm22.61-15.29c0-.08,0-.16,0-.24C124.91,170.46,124.91,170.54,124.9,170.62Zm0-3.71a.41.41,0,0,1,0,.11A.41.41,0,0,0,124.94,166.91Z" transform="translate(-8 -6)"/></svg>