<svg id="Capa_1" data-name="Capa 1" xmlns="http://www.w3.org/2000/svg" viewBox="0 0 146.4 146"><defs><style>.cls-1{fill:#29abe2;}</style></defs><title>goalIcon</title><path class="cls-1" d="M76.3,148.2c-40.3,0-73.2-32.8-73.2-73a73.2,73.2,0,1,1,73.2,73Zm0-139a66,66,0,1,0,66.2,66A66.2,66.2,0,0,0,76.3,9.2Z" transform="translate(-3.1 -2.2)"/><circle class="cls-1" cx="73.2" cy="75" r="14"/><rect class="cls-1" x="62.9" y="41.9" width="88.4" height="5" rx="2.5" transform="translate(-3.2 86.6) rotate(-45)"/><path class="cls-1" d="M127.8,73.7h-6.5A45,45,0,0,0,79.8,30.6V24.7h-7v5.9A44.9,44.9,0,0,0,31.4,73.7H24.3v7h7.3a45.2,45.2,0,0,0,41.2,39.4v6.6h7v-6.6A45.1,45.1,0,0,0,121,80.7h6.8Zm-48,39.4v-5.4h-7v5.4A38.1,38.1,0,0,1,38.7,80.7h4.6v-7H38.4A38,38,0,0,1,72.8,37.6v6.1h7V37.6a38.1,38.1,0,0,1,34.5,36.1h-5.5v7h5.1A37.9,37.9,0,0,1,79.8,113.1Z" transform="translate(-3.1 -2.2)"/></svg>