<svg id="Capa_1" data-name="Capa 1" xmlns="http://www.w3.org/2000/svg" viewBox="0 0 194.86 195"><defs><style>.cls-1{fill:#3d4c88;}</style></defs><title>invoiceAddress-5px</title><path class="cls-1" d="M20.06,197.5A17.58,17.58,0,0,1,2.5,179.94V50.73L50.25,2.5h71.69A17.58,17.58,0,0,1,139.5,20.06V76.6a2.5,2.5,0,0,1-5,0v-56a13.09,13.09,0,0,0-13-13.1H52.34L7.5,52.78V179.43A13.08,13.08,0,0,0,20.57,192.5h98.89a13.09,13.09,0,0,0,13-13.07V168.17a2.5,2.5,0,1,1,5,0v11.77A17.59,17.59,0,0,1,120,197.5Z" transform="translate(-2.5 -2.5)"/><path class="cls-1" d="M121,35.5a2.5,2.5,0,0,1-2.5-2.5V32a9.51,9.51,0,0,0-9.5-9.5,2.5,2.5,0,0,1,0-5A14.51,14.51,0,0,1,123.5,32v1A2.5,2.5,0,0,1,121,35.5Z" transform="translate(-2.5 -2.5)"/><path class="cls-1" d="M35,143.5a2.5,2.5,0,0,1,0-5H93a2.5,2.5,0,0,1,0,5Z" transform="translate(-2.5 -2.5)"/><path class="cls-1" d="M35,164.5a2.5,2.5,0,0,1,0-5H98.7L109.48,127l63-71.45c.17-.19.36-.38.54-.57a14.15,14.15,0,0,1,20.82,19.14l-64.14,72.72L93,164.5Zm68-8.1,24.28-11.69-15.71-14.24Zm9.92-28.71,16.5,14.94,55.77-63.2-16.47-15Zm70-73.61a11,11,0,0,0-8,3.41l-4.15,4.71,16.5,15,4.35-5-3-3.86,3.11,3.77a11.13,11.13,0,0,0-8.76-18Z" transform="translate(-2.5 -2.5)"/><path class="cls-1" d="M73.5,112.5v-8H62a10,10,0,0,1-9.8-8h3.09a7,7,0,0,0,6.7,5H88a7,7,0,0,0,0-14H61.5A9.51,9.51,0,0,1,52,78V77a9.51,9.51,0,0,1,9.5-9.5h12v-8h3v8h12a9.52,9.52,0,0,1,9.17,7H94.5a6.5,6.5,0,0,0-6-4h-27A6.51,6.51,0,0,0,55,77v1a6.51,6.51,0,0,0,6.5,6.5H88a10,10,0,0,1,0,20H76.5v8Z" transform="translate(-2.5 -2.5)"/></svg>