<svg id="Capa_1" data-name="Capa 1" xmlns="http://www.w3.org/2000/svg" viewBox="0 0 196.86 197"><defs><style>.cls-1{fill:#3d4c88;}</style></defs><title>invoiceAddress-7px</title><path class="cls-1" d="M20.06,198.5A18.59,18.59,0,0,1,1.5,179.94V50.32L49.84,1.5h72.1A18.59,18.59,0,0,1,140.5,20.06V76.6a3.5,3.5,0,0,1-7,0v-56a12.08,12.08,0,0,0-12-12.1H52.75L8.5,53.19V179.43A12.08,12.08,0,0,0,20.57,191.5h98.89a12.09,12.09,0,0,0,12-12.07V168.17a3.5,3.5,0,1,1,7,0v11.77A18.59,18.59,0,0,1,120,198.5Z" transform="translate(-1.5 -1.5)"/><path class="cls-1" d="M121,36.5a3.5,3.5,0,0,1-3.5-3.5V32a8.51,8.51,0,0,0-8.5-8.5,3.5,3.5,0,0,1,0-7A15.51,15.51,0,0,1,124.5,32v1A3.5,3.5,0,0,1,121,36.5Z" transform="translate(-1.5 -1.5)"/><path class="cls-1" d="M35,144.5a3.5,3.5,0,0,1,0-7H93a3.5,3.5,0,0,1,0,7Z" transform="translate(-1.5 -1.5)"/><path class="cls-1" d="M35,165.5a3.5,3.5,0,0,1,0-7H98l10.63-32,63.16-71.6c.19-.21.38-.41.58-.61a15.14,15.14,0,0,1,22.28,20.5l-64.27,72.87L93.26,165.5Zm69.68-11,20.82-10L112,132.24Zm9.64-26.86,15,13.6L183.78,79.5l-15-13.63Zm68.55-72.53a10,10,0,0,0-7.29,3.1l-3.47,3.94,15,13.62,3.68-4.22L189,69.2l1.86,2.27a10.14,10.14,0,0,0-8-16.39Z" transform="translate(-1.5 -1.5)"/><path class="cls-1" d="M72.5,113.5v-8H62a11,11,0,0,1-11-10h5a6,6,0,0,0,5.91,5H88a6,6,0,0,0,0-12H61.5A10.51,10.51,0,0,1,51,78V77A10.51,10.51,0,0,1,61.5,66.5h11v-8h5v8h11a10.52,10.52,0,0,1,10.39,9h-5.1a5.5,5.5,0,0,0-5.29-4h-27A5.51,5.51,0,0,0,56,77v1a5.51,5.51,0,0,0,5.5,5.5H88a11,11,0,0,1,0,22H77.5v8Z" transform="translate(-1.5 -1.5)"/></svg>