<svg id="Capa_1" data-name="Capa 1" xmlns="http://www.w3.org/2000/svg" viewBox="0 0 194.8 197"><defs><style>.cls-1{fill:#3d4c88;}.cls-2{fill:none;}</style></defs><title>invoiceAddress-7px</title><path class="cls-1" d="M12.93,198.5A11.45,11.45,0,0,1,1.5,187.09V12.93A11.45,11.45,0,0,1,12.93,1.5H153.57A11.44,11.44,0,0,1,165,12.91V54.15a3.5,3.5,0,1,1-7,0v-40a5.67,5.67,0,0,0-5.66-5.65H14.17A5.67,5.67,0,0,0,8.5,14.17V185.83a5.67,5.67,0,0,0,5.67,5.67H152.33a5.67,5.67,0,0,0,5.67-5.67V159.64a3.5,3.5,0,0,1,7,0v27.43a11.43,11.43,0,0,1-11.41,11.43Z" transform="translate(-1.5 -1.5)"/><line class="cls-2" x1="43.5" y1="107.5" x2="106.5" y2="107.5"/><rect class="cls-2" x="43.5" y="106" width="63" height="3"/><path class="cls-1" d="M50,112.5a3.5,3.5,0,0,1,0-7h53a3.5,3.5,0,0,1,0,7Z" transform="translate(-1.5 -1.5)"/><line class="cls-2" x1="43.5" y1="129.5" x2="106.5" y2="129.5"/><rect class="cls-2" x="43.5" y="128" width="63" height="3"/><path class="cls-1" d="M50,134.5a3.5,3.5,0,0,1,0-7h53a3.5,3.5,0,0,1,0,7Z" transform="translate(-1.5 -1.5)"/><line class="cls-2" x1="43.5" y1="151.5" x2="106.5" y2="151.5"/><rect class="cls-2" x="43.5" y="150" width="63" height="3"/><path class="cls-1" d="M50,156.5a3.5,3.5,0,0,1,0-7h53a3.5,3.5,0,0,1,0,7Z" transform="translate(-1.5 -1.5)"/><path class="cls-1" d="M120.57,144.2l47.55-82.73c.19-.35.37-.64.55-.92a15.1,15.1,0,0,1,25.62,16l-48.38,84.19L115.8,183.58Zm1.64,28.13,18.35-13.89L125,149.1Zm4.2-28.23,17.29,10.42,41-71.36L167.41,72.71Zm54.84-85.26a10.34,10.34,0,0,0-2.35.28,10.14,10.14,0,0,0-6.41,4.79l-2.57,4.5,17.31,10.44L190,74a10.14,10.14,0,0,0-3.16-13.42A10,10,0,0,0,181.25,58.84Z" transform="translate(-1.5 -1.5)"/><path class="cls-1" d="M76.5,87.84v-8H66a11,11,0,0,1-11-10h5a6,6,0,0,0,5.92,5H92a6,6,0,0,0,0-12H65.5A10.51,10.51,0,0,1,55,52.34v-1a10.51,10.51,0,0,1,10.5-10.5h11v-8h5v8h11a10.52,10.52,0,0,1,10.39,9h-5.1a5.5,5.5,0,0,0-5.29-4h-27a5.51,5.51,0,0,0-5.5,5.5v1a5.51,5.51,0,0,0,5.5,5.5H92a11,11,0,0,1,0,22H81.5v8Z" transform="translate(-1.5 -1.5)"/><path class="cls-1" d="M143.13,38.34a3.5,3.5,0,0,1-3.5-3.5v-1a8.51,8.51,0,0,0-8.5-8.5,3.5,3.5,0,0,1,0-7,15.51,15.51,0,0,1,15.5,15.5v1A3.5,3.5,0,0,1,143.13,38.34Z" transform="translate(-1.5 -1.5)"/></svg>