<?xml version="1.0" encoding="utf-8"?>
<!-- Generator: Adobe Illustrator 23.0.2, SVG Export Plug-In . SVG Version: 6.00 Build 0)  -->
<svg version="1.1" id="Capa_1" xmlns="http://www.w3.org/2000/svg" xmlns:xlink="http://www.w3.org/1999/xlink" x="0px" y="0px"
	 viewBox="0 0 199.9 200" style="enable-background:new 0 0 199.9 200;" xml:space="preserve">
<style type="text/css">
	.st0{fill:#3D4C88;}
	.st1{fill:none;}
</style>
<title>invoiceAddress</title>
<path class="st0" d="M155.6,200H15c-7.1,0-12.9-5.8-12.9-12.9V12.9C2.1,5.8,7.8,0,15,0c0,0,0,0,0,0h140.6c7.1,0,12.9,5.8,12.9,12.9
	v41.2c0,2.8-2.2,5-5,5l0,0c-2.8,0-5-2.2-5-5v-40c0-2.3-1.9-4.2-4.2-4.2H16.2c-2.3,0-4.2,1.9-4.2,4.2v171.7c0,2.3,1.9,4.2,4.2,4.2
	h138.2c2.3,0,4.2-1.9,4.2-4.2v-26.2c0-2.8,2.2-5,5-5l0,0c2.8,0,5,2.2,5,5v27.4C168.6,194.2,162.8,200,155.6,200z"/>
<line class="st1" x1="47.1" y1="109" x2="110.1" y2="109"/>
<path class="st0" d="M52.1,104h53c2.8,0,5,2.2,5,5l0,0c0,2.8-2.2,5-5,5h-53c-2.8,0-5-2.2-5-5l0,0C47.1,106.2,49.3,104,52.1,104z"/>
<line class="st1" x1="47.1" y1="131" x2="110.1" y2="131"/>
<path class="st0" d="M52.1,126h53c2.8,0,5,2.2,5,5l0,0c0,2.8-2.2,5-5,5h-53c-2.8,0-5-2.2-5-5l0,0C47.1,128.2,49.3,126,52.1,126z"/>
<line class="st1" x1="47.1" y1="153" x2="110.1" y2="153"/>
<path class="st0" d="M52.1,148h53c2.8,0,5,2.2,5,5l0,0c0,2.8-2.2,5-5,5h-53c-2.8,0-5-2.2-5-5l0,0C47.1,150.2,49.3,148,52.1,148z"/>
<line class="st1" x1="81.1" y1="175" x2="110.1" y2="175"/>
<path class="st0" d="M192.5,55.1c-7.6-5.1-17.9-3-23,4.6c-0.2,0.3-0.4,0.6-0.6,1l-47.7,83l-5.2,43.2l33.2-25.2l48.5-84.4
	C202,69.6,199.7,60,192.5,55.1z M181.3,60.6c2.3-0.6,4.8-0.1,6.8,1.2c3.8,2.5,4.9,7.5,2.7,11.4l-2,3.6L174,67.9l1.8-3.2
	C177,62.6,179,61.1,181.3,60.6z M128.3,151.6l11.6,7L126.2,169L128.3,151.6z M145.2,152.4l-14.7-8.9L170,74.8l14.7,8.9L145.2,152.4z
	"/>
<path class="st0" d="M94.1,56.3H67.6c-2.2,0-4-1.8-4-4v-1c0-2.2,1.8-4,4-4h27c2.2,0,4,1.8,4,4h8c0-6.6-5.4-12-12-12h-9.5v-8h-8v8
	h-9.5c-6.6,0-12,5.4-12,12v1c0,6.6,5.4,12,12,12h26.5c2.5,0,4.5,2,4.5,4.5s-2,4.5-4.5,4.5h-26c-2.5,0-4.5-2-4.5-4.5c0,0,0,0,0,0
	v-0.5h-8v0.5c0,6.9,5.6,12.5,12.5,12.5h9v8h8v-8h9c6.9,0,12.5-5.6,12.5-12.5S101,56.3,94.1,56.3z"/>
<path class="st0" d="M145.2,39.8L145.2,39.8c-2.8,0-5-2.2-5-5v-1c0-3.9-3.1-7-7-7l0,0c-2.8,0-5-2.2-5-5l0,0c0-2.8,2.2-5,5-5l0,0
	c9.4,0,17,7.6,17,17v1C150.2,37.6,147.9,39.8,145.2,39.8z"/>
</svg>
