<svg id="Capa_1" data-name="Capa 1" xmlns="http://www.w3.org/2000/svg" viewBox="0 0 199.85 200"><defs><style>.cls-1{fill:#3d4c88;}</style></defs><title>invoiceAddress</title><path class="cls-1" d="M120,200H20.06A20.06,20.06,0,0,1,0,179.94V49.7L49.21,0h72.73A20.06,20.06,0,0,1,142,20.06V76.6a5,5,0,0,1-5,5h0a5,5,0,0,1-5-5v-56A10.57,10.57,0,0,0,121.43,10H53.38L10,53.81V179.43A10.57,10.57,0,0,0,20.57,190h98.89A10.57,10.57,0,0,0,130,179.43V168.17a5,5,0,0,1,5-5h0a5,5,0,0,1,5,5v11.77A20.06,20.06,0,0,1,120,200Z"/><path class="cls-1" d="M121,38h0a5,5,0,0,1-5-5V32a7,7,0,0,0-7-7h0a5,5,0,0,1-5-5h0a5,5,0,0,1,5-5h0a17,17,0,0,1,17,17v1A5,5,0,0,1,121,38Z"/><path class="cls-1" d="M35,146H93a5,5,0,0,0,0-10H35a5,5,0,0,0,0,10Z"/><path class="cls-1" d="M195,53.18a16.77,16.77,0,0,0-24.36.75l-63.37,71.83L96.67,157.67l.23-.67H35a5,5,0,0,0,0,10H93.6l37.67-18.1L195.75,75.8A16.51,16.51,0,0,0,195,53.18Zm-87.79,98.41,5.52-16.69,10.11,9.17Zm22-12.51-12.79-11.59L168.91,68l12.77,11.62Zm60.47-68.55L187,73.6,174.21,62l2.45-2.78a8.63,8.63,0,0,1,13,11.32Z"/><path class="cls-1" d="M88,82H61.5a4,4,0,0,1-4-4V77a4,4,0,0,1,4-4h27a4,4,0,0,1,4,4h8a12,12,0,0,0-12-12H79V57H71v8H61.5a12,12,0,0,0-12,12v1a12,12,0,0,0,12,12H88a4.5,4.5,0,0,1,0,9H62a4.49,4.49,0,0,1-4.5-4.5V94h-8v.5A12.5,12.5,0,0,0,62,107h9v8h8v-8h9a12.5,12.5,0,0,0,0-25Z"/></svg>