<svg id="Capa_1" data-name="Capa 1" xmlns="http://www.w3.org/2000/svg" xmlns:xlink="http://www.w3.org/1999/xlink" viewBox="0 0 41.2 14.3"><defs><style>.cls-1{fill:#fff;}.cls-2{fill:url(#Degradado_sin_nombre);}.cls-3{fill:url(#Degradado_sin_nombre_2);}.cls-4{fill:url(#Degradado_sin_nombre_3);}</style><linearGradient id="Degradado_sin_nombre" x1="30.85" y1="-17.93" x2="38.39" y2="-17.93" gradientTransform="matrix(1, 0, 0, -1, -0.3, -14.86)" gradientUnits="userSpaceOnUse"><stop offset="0.5" stop-color="#fff"/><stop offset="0.86" stop-color="#fff" stop-opacity="0.4"/></linearGradient><linearGradient id="Degradado_sin_nombre_2" x1="32.45" y1="-21.34" x2="35.96" y2="-21.34" xlink:href="#Degradado_sin_nombre"/><linearGradient id="Degradado_sin_nombre_3" x1="0.58" y1="-24.63" x2="4" y2="-24.63" xlink:href="#Degradado_sin_nombre"/></defs><title>logoXcala_180w_SVG_smaller</title><path class="cls-1" d="M26.5,5.8v9.5H24.7V9.1A4.1,4.1,0,0,1,26.5,5.8Z" transform="translate(0 -1.3)"/><path class="cls-1" d="M15.4,13.5a1.4,1.4,0,0,0-1.4-.1,3.1,3.1,0,0,1-1.3.3,1.8,1.8,0,0,1-1.6-.5,2,2,0,0,1-.6-1.5,1.8,1.8,0,0,1,.6-1.4,2.7,2.7,0,0,1,1.7-.6,1.5,1.5,0,0,1,.9.2H14a1.4,1.4,0,0,0,1.4,0h0l.6-.4a4.7,4.7,0,0,0-1.3-1.1,4.3,4.3,0,0,0-1.9-.4,4.6,4.6,0,0,0-2.1.5A3.7,3.7,0,0,0,9.2,9.9a2.9,2.9,0,0,0-.5,1.8,3.6,3.6,0,0,0,1,2.5,3.9,3.9,0,0,0,3,1.1A4,4,0,0,0,16,13.9Z" transform="translate(0 -1.3)"/><path class="cls-1" d="M34.6,9.9,34,9.2,33.8,9l-.5.2v4.3a1.8,1.8,0,0,0,1.8,1.8h0V11.5A3,3,0,0,0,34.6,9.9Zm.5,1.6A3.8,3.8,0,0,0,34,9.2L33.8,9,33,8.5a4.1,4.1,0,0,0-1.9-.4H31a4.3,4.3,0,0,0-1.9.4l-.9.7a1.3,1.3,0,0,0-.6.7,3,3,0,0,0-.6,1.8,3.3,3.3,0,0,0,1.1,2.5,4.3,4.3,0,0,0,2.8,1.1h.3a4.6,4.6,0,0,0,2.1-.5l.7-.6a3,3,0,0,0,1.1-2.3ZM32.9,13a2.5,2.5,0,0,1-3.6,0h0a1.5,1.5,0,0,1-.4-1.3,1.8,1.8,0,0,1,.6-1.4,2.3,2.3,0,0,1,1.6-.6,2.5,2.5,0,0,1,1.6.6,1.8,1.8,0,0,1,.6,1.4A2,2,0,0,1,32.9,13Z" transform="translate(0 -1.3)"/><path class="cls-1" d="M38.8,12.4c-.2-2.6-.4-5.2-.7-7.8h0l-.3-3.1,3.4-.2a19.9,19.9,0,0,1-.3,4.9A16.9,16.9,0,0,1,38.8,12.4Z" transform="translate(0 -1.3)"/><path class="cls-2" d="M38.1,4.6l-7.6-.5a18.1,18.1,0,0,1,5.4-2.2l1.9-.4Z" transform="translate(0 -1.3)"/><path class="cls-1" d="M36,10.8l-.3-3.6h0l-.2-1.4h1.6A8.1,8.1,0,0,1,37,7.9,10,10,0,0,1,36,10.8Z" transform="translate(0 -1.3)"/><path class="cls-3" d="M35.7,7.2l-3.6-.3a11.7,11.7,0,0,1,2.6-1h.8Z" transform="translate(0 -1.3)"/><path class="cls-1" d="M0,15.6l2.7-3.9H2.6l1.1-1.5a9.5,9.5,0,0,1,1.2,1.6A18,18,0,0,1,3,13.9,11.1,11.1,0,0,1,0,15.6Z" transform="translate(0 -1.3)"/><path class="cls-4" d="M2.6,11.7.3,7.8A10.1,10.1,0,0,1,2.9,9.4l.8.8Z" transform="translate(0 -1.3)"/><path class="cls-1" d="M9.8,15.7,7.2,11.8h0L6.1,10.2,4.9,11.8l1.9,2.1A11.4,11.4,0,0,0,9.8,15.7Z" transform="translate(0 -1.3)"/><path class="cls-1" d="M7.2,11.8,9.6,7.9A7.4,7.4,0,0,0,6.9,9.5l-.8.7Z" transform="translate(0 -1.3)"/><path class="cls-1" d="M23.5,9.9a1.3,1.3,0,0,0-.6-.7L22.7,9l-.4.2v4.3A1.7,1.7,0,0,0,24,15.3h0V11.5A3,3,0,0,0,23.5,9.9Zm.5,1.6a3,3,0,0,0-1.1-2.3L22.7,9l-.8-.5A4.1,4.1,0,0,0,20,8.1h0a4.1,4.1,0,0,0-1.9.4l-1,.7-.6.7a3.7,3.7,0,0,0-.5,1.8,3.3,3.3,0,0,0,1.1,2.5,3.9,3.9,0,0,0,2.8,1.1h.3a5.4,5.4,0,0,0,2.1-.5l.7-.6a3.3,3.3,0,0,0,1-2.3ZM21.8,13a2.5,2.5,0,0,1-3.6,0h0a2,2,0,0,1-.4-1.3,1.8,1.8,0,0,1,.6-1.4,2.4,2.4,0,0,1,3.2,0,1.8,1.8,0,0,1,.6,1.4A2,2,0,0,1,21.8,13Z" transform="translate(0 -1.3)"/></svg>