<svg id="Capa_1" data-name="Capa 1" xmlns="http://www.w3.org/2000/svg" xmlns:xlink="http://www.w3.org/1999/xlink" viewBox="0 0 41.2 14.4"><defs><style>.cls-1{fill:#10174b;}.cls-2{fill:url(#Degradado_sin_nombre_75);}.cls-3{fill:url(#Degradado_sin_nombre_75-2);}.cls-4{fill:url(#Degradado_sin_nombre_75-3);}</style><linearGradient id="Degradado_sin_nombre_75" x1="30.85" y1="1097.91" x2="38.39" y2="1097.91" gradientTransform="translate(-0.3 -1096.2)" gradientUnits="userSpaceOnUse"><stop offset="0.5" stop-color="#4070b5"/><stop offset="0.86" stop-color="#4070b5" stop-opacity="0.4"/></linearGradient><linearGradient id="Degradado_sin_nombre_75-2" x1="32.45" y1="1101.41" x2="35.96" y2="1101.41" xlink:href="#Degradado_sin_nombre_75"/><linearGradient id="Degradado_sin_nombre_75-3" x1="0.58" y1="1104.61" x2="4" y2="1104.61" xlink:href="#Degradado_sin_nombre_75"/></defs><title>logoXcala_180w_SVG_azul_smaller</title><path class="cls-1" d="M26.5,4.5V14H24.7V7.8A4,4,0,0,1,26.5,4.5Z" transform="translate(0 0)"/><path class="cls-1" d="M15.4,12.2a1.4,1.4,0,0,0-1.4-.1,3.1,3.1,0,0,1-1.3.3,1.8,1.8,0,0,1-1.6-.5,2,2,0,0,1-.6-1.5A2,2,0,0,1,11.1,9a2.7,2.7,0,0,1,1.7-.6,1.5,1.5,0,0,1,.9.2H14a1.2,1.2,0,0,0,1.4,0h0l.6-.4a6.9,6.9,0,0,0-1.3-1.1,4.1,4.1,0,0,0-1.9-.4,5.4,5.4,0,0,0-2.1.5A4,4,0,0,0,9.2,8.6a2.9,2.9,0,0,0-.5,1.8,3.9,3.9,0,0,0,1,2.5,3.8,3.8,0,0,0,3,1.1A3.8,3.8,0,0,0,16,12.6Z" transform="translate(0 0)"/><path class="cls-1" d="M34.6,8.6,34,7.9l-.2-.2-.5.2v4.3A1.8,1.8,0,0,0,35.1,14h0V10.2A3,3,0,0,0,34.6,8.6Zm.5,1.6A3.8,3.8,0,0,0,34,7.9l-.2-.2L33,7.2a4.1,4.1,0,0,0-1.9-.4H31a4.1,4.1,0,0,0-1.9.4l-.9.7a1.3,1.3,0,0,0-.6.7,3,3,0,0,0-.6,1.8,3.3,3.3,0,0,0,1.1,2.5A4.3,4.3,0,0,0,30.9,14h.3a5.4,5.4,0,0,0,2.1-.5l.7-.6a3,3,0,0,0,1.1-2.3Zm-2.2,1.5a2.5,2.5,0,0,1-3.5.1h-.1a1.5,1.5,0,0,1-.4-1.3A2,2,0,0,1,29.5,9a2.4,2.4,0,0,1,3.2,0,2,2,0,0,1,.6,1.4A2,2,0,0,1,32.9,11.7Z" transform="translate(0 0)"/><path class="cls-1" d="M38.8,11.1c-.2-2.6-.4-5.2-.7-7.8h0L37.8.2,41.2,0a20.2,20.2,0,0,1-.3,4.9A16.9,16.9,0,0,1,38.8,11.1Z" transform="translate(0 0)"/><path class="cls-2" d="M38.1,3.3l-7.6-.5A18.1,18.1,0,0,1,35.9.6L37.8.2Z" transform="translate(0 0)"/><path class="cls-1" d="M36,9.5l-.3-3.6h0l-.2-1.4h1.6A7.4,7.4,0,0,1,37,6.6,10,10,0,0,1,36,9.5Z" transform="translate(0 0)"/><path class="cls-3" d="M35.7,5.9l-3.6-.3a11.7,11.7,0,0,1,2.6-1h.8Z" transform="translate(0 0)"/><path class="cls-1" d="M0,14.3l2.7-3.9H2.6L3.7,8.9a6.1,6.1,0,0,1,1.2,1.6A19,19,0,0,1,3,12.6,11.1,11.1,0,0,1,0,14.3Z" transform="translate(0 0)"/><path class="cls-4" d="M2.6,10.4.3,6.5A10.1,10.1,0,0,1,2.9,8.1l.8.8Z" transform="translate(0 0)"/><path class="cls-1" d="M9.8,14.4,7.2,10.5h0L6.1,8.9,4.9,10.5l1.9,2.1A9.2,9.2,0,0,0,9.8,14.4Z" transform="translate(0 0)"/><path class="cls-1" d="M7.2,10.5,9.6,6.6A7.4,7.4,0,0,0,6.9,8.2l-.8.7Z" transform="translate(0 0)"/><path class="cls-1" d="M23.5,8.6a1.3,1.3,0,0,0-.6-.7l-.2-.2-.4.2v4.3A1.8,1.8,0,0,0,23.9,14H24V10.2A3,3,0,0,0,23.5,8.6Zm.5,1.6a3,3,0,0,0-1.1-2.3l-.2-.2-.8-.5A4.1,4.1,0,0,0,20,6.8h0a4.1,4.1,0,0,0-1.9.4l-1,.7-.6.7a3.7,3.7,0,0,0-.5,1.8,3.3,3.3,0,0,0,1.1,2.5A4.1,4.1,0,0,0,19.9,14h.3a5.4,5.4,0,0,0,2.1-.5l.7-.6a3.3,3.3,0,0,0,1-2.3Zm-2.2,1.5a2.5,2.5,0,0,1-3.5.1h-.1a2,2,0,0,1-.4-1.3A2,2,0,0,1,18.4,9a2.4,2.4,0,0,1,3.2,0,2,2,0,0,1,.6,1.4A2,2,0,0,1,21.8,11.7Z" transform="translate(0 0)"/></svg>