<svg id="Layer_1" data-name="Layer 1" xmlns="http://www.w3.org/2000/svg" viewBox="0 0 108.85 134.04"><defs><style>.cls-1{fill:#22114a;}.cls-2{fill:#ee3774;}.cls-3{fill:#42c3d1;}</style></defs><title>logo nequi-02</title><path id="_Path_" data-name=" Path " class="cls-1" d="M95.335,108.591a.49.49,0,0,0-.47-.48h-1.6a.48.48,0,0,0-.47.48v15.7a.49.49,0,0,0,.47.48h1.63a.48.48,0,0,0,.47-.48Z"/><path id="_Path_2" data-name=" Path 2" class="cls-1" d="M29.815,108.141h-1.54a.47.47,0,0,0-.47.47h0v11l-10.49-11.25a.6.6,0,0,0-.46-.22h-.54a.47.47,0,0,0-.42.45v15.72a.49.49,0,0,0,.46.48h1.54a.48.48,0,0,0,.47-.48V113l10.77,11.59s.21.2.33.2h.34a.47.47,0,0,0,.46-.46v-15.74A.48.48,0,0,0,29.815,108.141Z"/><path id="_Path_3" data-name=" Path 3" class="cls-1" d="M45.015,124.781h.66a.47.47,0,0,0,.47-.47h0v-1.42a.48.48,0,0,0-.47-.48h-6.2v-5.17h6.21a.47.47,0,0,0,.47-.47h0v-1.42a.48.48,0,0,0-.47-.48h-6.21v-4.36h6.2a.48.48,0,0,0,.47-.48v-1.44a.47.47,0,0,0-.47-.47h-8.26a.47.47,0,0,0-.47.47h0v15.7a.48.48,0,0,0,.47.48h7.6Z"/><path id="_Path_4" data-name=" Path 4" class="cls-1" d="M86.135,108.591a.48.48,0,0,0-.46-.46h-1.56a.47.47,0,0,0-.47.46v9.36a5.17,5.17,0,0,1-.52,2.82,3.63,3.63,0,0,1-6.11,0,5.19,5.19,0,0,1-.51-2.82v-9.36a.48.48,0,0,0-.46-.46h-1.57a.46.46,0,0,0-.46.46v10a5.78,5.78,0,0,0,1.25,3.86,6.13,6.13,0,0,0,9.59,0,5.82,5.82,0,0,0,1.28-3.86Z"/><g id="_Group_" data-name=" Group "><path id="_Compound_Path_" data-name=" Compound Path " class="cls-1" d="M64.515,123.491a8.43,8.43,0,0,1-4.47,1.3,8.64,8.64,0,0,1-6.34-2.86,7.86,7.86,0,0,1-2-5.41,8.38,8.38,0,1,1,16.755-.422q.007.281,0,.562a7.44,7.44,0,0,1-2.28,5.51m-1.69-1.71a5.29,5.29,0,0,0,1.54-4,5.93,5.93,0,0,0-5.778-6.079q-.111,0-.222,0a5.84,5.84,0,0,0-5.9,5.778q0,.216.011.432a5.59,5.59,0,0,0,1.76,4.21,5.86,5.86,0,0,0,6.94,1"/><path id="_Path_5" data-name=" Path 5" class="cls-1" d="M68.115,124.091c.38.38.26.69-.29.69h-1.66a1.17,1.17,0,0,1-.69-.28l-5.43-5.37a.57.57,0,0,1,.41-1h1.24a1.17,1.17,0,0,1,.69.28Z"/></g><g id="_Group_2" data-name=" Group 2"><path id="_Path_6" data-name=" Path 6" class="cls-2" d="M24.231,30.987,58.46,13.475a5.082,5.082,0,0,1,6.123,1.1l29.422,33a5.082,5.082,0,0,1,0,6.919L62.134,88.546a7.44,7.44,0,0,1-10.519-.215q-.2-.207-.38-.428L20.4,46.3a10.348,10.348,0,0,1,3.827-15.308"/><path id="_Path_7" data-name=" Path 7" class="cls-3" d="M17.894,47.122,40.182,16.843a5.052,5.052,0,0,1,6.123-1.653l41.883,16.9a5.174,5.174,0,0,1,3.062,6.123L79,82.269A7.317,7.317,0,0,1,68.931,86.4L21.813,62.583a10.348,10.348,0,0,1-3.919-15.461"/><path id="_Path_8" data-name=" Path 8" class="cls-1" d="M75.819,27.16,51.143,17.18l-18,9.185L19.516,44.734A10.409,10.409,0,0,0,20.4,46.2l18.37,24.768,26.85,13.563L83.657,65.216,89.78,42.775Z"/></g></svg>