<svg id="Capa_1" data-name="Capa 1" xmlns="http://www.w3.org/2000/svg" xmlns:xlink="http://www.w3.org/1999/xlink" viewBox="0 0 134.2 46.6"><defs><style>.cls-1{fill:#10174b;}.cls-2{fill:url(#Degradado_sin_nombre_75);}.cls-3{fill:url(#Degradado_sin_nombre_75-2);}.cls-4{fill:url(#Degradado_sin_nombre_75-3);}</style><linearGradient id="Degradado_sin_nombre_75" x1="99.69" y1="6.59" x2="124.23" y2="6.59" gradientUnits="userSpaceOnUse"><stop offset="0.5" stop-color="#4070b5"/><stop offset="0.86" stop-color="#4070b5" stop-opacity="0.4"/></linearGradient><linearGradient id="Degradado_sin_nombre_75-2" x1="104.91" y1="17.7" x2="116.33" y2="17.7" xlink:href="#Degradado_sin_nombre_75"/><linearGradient id="Degradado_sin_nombre_75-3" x1="1.19" y1="28.41" x2="12.33" y2="28.41" xlink:href="#Degradado_sin_nombre_75"/></defs><title>logoXcala_180w_SVG_azul</title><path class="cls-1" d="M86.6,15.6V46.4H80.8V26.3a12.6,12.6,0,0,1,5.8-10.7Z" transform="translate(-0.3 -1)"/><path class="cls-1" d="M50.3,40.4a4.5,4.5,0,0,0-4.6-.1,9,9,0,0,1-4.2,1,7.2,7.2,0,0,1-5.1-1.8,6.2,6.2,0,0,1-2-4.7A6.3,6.3,0,0,1,36.5,30a7.6,7.6,0,0,1,5.3-1.8,7.5,7.5,0,0,1,3.1.5,2,2,0,0,1,.8.4,4.7,4.7,0,0,0,4.6.1h0L52.5,28A12.4,12.4,0,0,0,48,24.3,14.1,14.1,0,0,0,41.8,23,14.8,14.8,0,0,0,35,24.5a12.5,12.5,0,0,0-4.8,4.3,11.3,11.3,0,0,0-1.7,6A11.1,11.1,0,0,0,32,42.9a13.4,13.4,0,0,0,9.7,3.5,13.1,13.1,0,0,0,10.6-4.7l-2-1.3Z" transform="translate(-0.3 -1)"/><path class="cls-1" d="M112.8,28.8a11.2,11.2,0,0,0-1.9-2.4l-.6-.5-1.6.7v14a5.8,5.8,0,0,0,5.8,5.8h0V34.1A11.1,11.1,0,0,0,112.8,28.8Zm1.7,5.3a12.1,12.1,0,0,0-3.6-7.7l-.6-.5a13.2,13.2,0,0,0-2.5-1.6,14.5,14.5,0,0,0-6.3-1.3h-.2a13.8,13.8,0,0,0-6.2,1.3A14.1,14.1,0,0,0,92,26.4a11.6,11.6,0,0,0-2,2.4,11.3,11.3,0,0,0-1.7,6,11.1,11.1,0,0,0,3.5,8.1,12.9,12.9,0,0,0,9.1,3.5h1a15.5,15.5,0,0,0,6.8-1.7,13,13,0,0,0,2.3-1.8,10.8,10.8,0,0,0,3.5-7.5V34.1Zm-7.3,4.8a8.1,8.1,0,0,1-11.5,0,5.8,5.8,0,0,1-1.5-4.1,6.6,6.6,0,0,1,2-4.8,7.7,7.7,0,0,1,5.2-1.8,7.3,7.3,0,0,1,5.2,1.8,6.2,6.2,0,0,1,2,4.8A5.7,5.7,0,0,1,107.2,38.9Z" transform="translate(-0.3 -1)"/><path class="cls-1" d="M126.6,37c-.8-8.5-1.5-16.9-2.3-25.4h-.1l-.9-10a63.5,63.5,0,0,1,11-.6,63.9,63.9,0,0,1-.8,15.8A67,67,0,0,1,126.6,37Z" transform="translate(-0.3 -1)"/><path class="cls-2" d="M124.2,11.6,99.7,9.8a64.3,64.3,0,0,1,17.5-7.1c2.1-.5,4.2-.8,6.1-1.1Z" transform="translate(-0.3 -1)"/><path class="cls-1" d="M117.4,31.9c-.3-4-.7-7.9-1-11.9h-.1l-.4-4.6a32.7,32.7,0,0,1,5.1-.3,31.3,31.3,0,0,1-.3,7.3A28.7,28.7,0,0,1,117.4,31.9Z" transform="translate(-0.3 -1)"/><path class="cls-3" d="M116.3,20l-11.4-.8a29.5,29.5,0,0,1,8.2-3.3l2.8-.5Z" transform="translate(-0.3 -1)"/><path class="cls-1" d="M.3,47.5,9,34.8H8.9l3.4-4.9a32.3,32.3,0,0,1,4,5,44.8,44.8,0,0,1-6.1,6.8A31.2,31.2,0,0,1,.3,47.5Z" transform="translate(-0.3 -1)"/><path class="cls-4" d="M8.9,34.7,1.2,22.1a28.7,28.7,0,0,1,8.6,5.2,19.7,19.7,0,0,1,2.5,2.5Z" transform="translate(-0.3 -1)"/><path class="cls-1" d="M32.3,47.6,23.7,34.9h0l-3.4-5a32.3,32.3,0,0,0-4,5,40.5,40.5,0,0,0,6.1,6.8A31.2,31.2,0,0,0,32.3,47.6Z" transform="translate(-0.3 -1)"/><path class="cls-1" d="M23.7,34.9l7.7-12.7a29.4,29.4,0,0,0-8.6,5.3,28.9,28.9,0,0,0-2.5,2.4Z" transform="translate(-0.3 -1)"/><path class="cls-1" d="M76.8,28.8a11.2,11.2,0,0,0-1.9-2.4l-.6-.5-1.6.7v14a5.8,5.8,0,0,0,5.8,5.8h0V34.1A11.1,11.1,0,0,0,76.8,28.8Zm1.7,5.3a12.1,12.1,0,0,0-3.6-7.7l-.6-.5a11.3,11.3,0,0,0-2.6-1.6A13.8,13.8,0,0,0,65.5,23h-.2a13.8,13.8,0,0,0-6.2,1.3A14.1,14.1,0,0,0,56,26.4a9.1,9.1,0,0,0-2,2.4,11.3,11.3,0,0,0-1.7,6,11.1,11.1,0,0,0,3.5,8.1,12.8,12.8,0,0,0,9.1,3.5h1a15.9,15.9,0,0,0,6.8-1.7A13,13,0,0,0,75,42.9a11.2,11.2,0,0,0,3.5-7.5V34.1Zm-7.3,4.8a8.2,8.2,0,0,1-11.6,0,6.2,6.2,0,0,1-1.4-4.1,6.6,6.6,0,0,1,2-4.8,8.4,8.4,0,0,1,10.4,0,6.6,6.6,0,0,1,2,4.8A6.2,6.2,0,0,1,71.2,38.9Z" transform="translate(-0.3 -1)"/></svg>