<?xml version="1.0" encoding="utf-8"?>
<!-- Generator: Adobe Illustrator 23.0.2, SVG Export Plug-In . SVG Version: 6.00 Build 0)  -->
<svg version="1.1" id="Capa_1" xmlns="http://www.w3.org/2000/svg" xmlns:xlink="http://www.w3.org/1999/xlink" x="0px" y="0px"
	 viewBox="0 0 1231.19 663.06" style="enable-background:new 0 0 1231.19 663.06;" xml:space="preserve">
<style type="text/css">
	.st0{fill:#FFFFFF;}
</style>
<g>
	<g>
		<line class="st0" x1="34.14" y1="69.07" x2="1196.84" y2="69.07"/>
		<path class="st0" d="M1166.84,99.07H64.14c-16.57,0-30-13.43-30-30v0c0-16.57,13.43-30,30-30h1102.69c16.57,0,30,13.43,30,30v0
			C1196.84,85.64,1183.4,99.07,1166.84,99.07z"/>
	</g>
	<g>
		<line class="st0" x1="34.14" y1="330.68" x2="1196.84" y2="330.68"/>
		<path class="st0" d="M1166.84,360.68H64.14c-16.57,0-30-13.43-30-30v0c0-16.57,13.43-30,30-30h1102.69c16.57,0,30,13.43,30,30v0
			C1196.84,347.25,1183.4,360.68,1166.84,360.68z"/>
	</g>
	<g>
		<line class="st0" x1="382.95" y1="592.29" x2="1196.84" y2="592.29"/>
		<path class="st0" d="M1166.84,622.29H412.95c-16.57,0-30-13.43-30-30v0c0-16.57,13.43-30,30-30h753.89c16.57,0,30,13.43,30,30v0
			C1196.84,608.85,1183.4,622.29,1166.84,622.29z"/>
	</g>
</g>
</svg>
