<svg id="Capa_1" data-name="Capa 1" xmlns="http://www.w3.org/2000/svg" viewBox="0 0 146.4 146"><defs><style>.cls-1{fill:#29abe2;}</style></defs><title>nequiQuickIcon</title><path class="cls-1" d="M76.9,148.2a73,73,0,1,1,73.2-73A73.2,73.2,0,0,1,76.9,148.2Zm0-139a66,66,0,1,0,66.2,66A66.2,66.2,0,0,0,76.9,9.2Z" transform="translate(-3.7 -2.2)"/><path class="cls-1" d="M49.7,107.3V45.7A4.3,4.3,0,0,1,54,41.4h3.3a4.2,4.2,0,0,1,3.6,2L82.2,76.9A205,205,0,0,1,94.7,99.7h.2c-.8-9.3-1-17.9-1-28.8V45.7a4.3,4.3,0,0,1,4.3-4.3h0a4.2,4.2,0,0,1,4.2,4.3v61.6a4.2,4.2,0,0,1-4.2,4.3H95.6a4.3,4.3,0,0,1-3.6-2L71,76A205.6,205.6,0,0,1,57.9,52.5h-.3c.5,8.9.7,17.4.7,29v25.7a4.3,4.3,0,0,1-4.3,4.3h0A4.3,4.3,0,0,1,49.7,107.3Z" transform="translate(-3.7 -2.2)"/></svg>