<svg id="Capa_1" data-name="Capa 1" xmlns="http://www.w3.org/2000/svg" viewBox="0 0 180 196.07"><defs><style>.cls-1{fill:none;}.cls-2{fill:#3d4c88;}</style></defs><title>orderDetails-7px</title><line class="cls-1" x1="72" y1="32.26" x2="180" y2="32.26"/><rect class="cls-1" x="72" y="30.76" width="108" height="3"/><path class="cls-2" d="M78.52,37.19a3.5,3.5,0,0,1,0-7h98a3.5,3.5,0,1,1,0,7Z" transform="translate(-1.52 -1.43)"/><line class="cls-1" x1="72" y1="99.26" x2="180" y2="99.26"/><rect class="cls-1" x="72" y="97.76" width="108" height="3"/><path class="cls-2" d="M78.52,104.19a3.5,3.5,0,1,1,0-7h98a3.5,3.5,0,1,1,0,7Z" transform="translate(-1.52 -1.43)"/><line class="cls-1" x1="72" y1="166.26" x2="180" y2="166.26"/><rect class="cls-1" x="72" y="164.76" width="108" height="3"/><path class="cls-2" d="M78.52,171.19a3.5,3.5,0,1,1,0-7h98a3.5,3.5,0,1,1,0,7Z" transform="translate(-1.52 -1.43)"/><path class="cls-2" d="M31.52,130.5a30,30,0,1,1,30-30,30,30,0,0,1-30,30Zm0-53a23,23,0,1,0,23,23,23,23,0,0,0-23-23Z" transform="translate(-1.52 -1.43)"/><path class="cls-2" d="M31.52,197.5a30,30,0,1,1,30-30,30,30,0,0,1-30,30Zm0-53a23,23,0,1,0,23,23,23,23,0,0,0-23-23Z" transform="translate(-1.52 -1.43)"/><path class="cls-2" d="M31.51,64.47A30,30,0,0,1,10.26,13.28a30,30,0,0,1,42.43-.06l1.06,1.06L65.62,2.41a3.49,3.49,0,0,1,4.94.09,3.5,3.5,0,0,1-.08,5L33.89,44a3.37,3.37,0,0,1-4.75,0L17.58,32.47a3.5,3.5,0,0,1,5-4.93l9,9L48.79,19.24l-1.06-1.06a23,23,0,1,0,5.44,24,3.25,3.25,0,0,1,3-2.22h.67a3.38,3.38,0,0,1,1,.17,3.19,3.19,0,0,1,1.82,1.62,3.15,3.15,0,0,1,.14,2.43,30.22,30.22,0,0,1-7.14,11.47A29.82,29.82,0,0,1,31.51,64.47Z" transform="translate(-1.52 -1.43)"/></svg>