<svg id="Capa_1" data-name="Capa 1" xmlns="http://www.w3.org/2000/svg" viewBox="0 0 181.52 198.96"><defs><style>.cls-1{fill:none;}.cls-2{fill:#3d4c88;}</style></defs><title>orderDetails</title><line class="cls-1" x1="73.52" y1="33.69" x2="181.52" y2="33.69"/><path class="cls-2" d="M78.5,28.69h98a5,5,0,0,1,5,5h0a5,5,0,0,1-5,5h-98a5,5,0,0,1-5-5h0A5,5,0,0,1,78.5,28.69Z" transform="translate(0.02 0)"/><line class="cls-1" x1="73.52" y1="100.69" x2="181.52" y2="100.69"/><path class="cls-2" d="M78.5,95.69h98a5,5,0,0,1,5,5h0a5,5,0,0,1-5,5h-98a5,5,0,0,1-5-5h0A5,5,0,0,1,78.5,95.69Z" transform="translate(0.02 0)"/><line class="cls-1" x1="73.52" y1="167.69" x2="181.52" y2="167.69"/><path class="cls-2" d="M78.5,162.69h98a5,5,0,0,1,5,5h0a5,5,0,0,1-5,5h-98a5,5,0,0,1-5-5h0A5,5,0,0,1,78.5,162.69Z" transform="translate(0.02 0)"/><path class="cls-2" d="M31.5,132A31.5,31.5,0,1,1,63,100.46,31.5,31.5,0,0,1,31.5,132Zm0-53A21.5,21.5,0,1,0,53,100.46,21.51,21.51,0,0,0,31.5,79Z" transform="translate(0.02 0)"/><path class="cls-2" d="M31.5,199A31.5,31.5,0,1,1,63,167.46,31.5,31.5,0,0,1,31.5,199Zm0-53A21.5,21.5,0,1,0,53,167.46h0A21.52,21.52,0,0,0,31.5,146Z" transform="translate(0.02 0)"/><path class="cls-2" d="M23.57,26.46a5,5,0,0,0-7.07,7.07L28.06,45.09h0a4.86,4.86,0,0,0,6.87,0L71.5,8.53a5,5,0,1,0-7.07-7.07l-10.7,10.7a31.5,31.5,0,1,0,7.56,32.51,4.68,4.68,0,0,0-4.42-6.21h-.69a4.74,4.74,0,0,0-4.44,3.22,21.52,21.52,0,1,1-5.09-22.44L31.5,34.39Z" transform="translate(0.02 0)"/></svg>