<svg id="Capa_1" data-name="Capa 1" xmlns="http://www.w3.org/2000/svg" viewBox="0 0 108 105.16"><title>resize</title><path d="M140.33,53l-6.07-6.07h21.79V68.71l-7-7L121.1,89.64a21,21,0,0,0-9-8.42Z" transform="translate(-49 -46.92)"/><path d="M64.72,146l6.07,6.07H49V130.29l7,7L84,109.36a21,21,0,0,0,9,8.42Z" transform="translate(-49 -46.92)"/><path d="M65.67,53l6.07-6.07H50V68.71l7-7L84.9,89.64a21,21,0,0,1,9-8.42Z" transform="translate(-49 -46.92)"/><path d="M141.28,146l-6.07,6.07H157V130.29l-7,7L122,109.36a21,21,0,0,1-9,8.42Z" transform="translate(-49 -46.92)"/></svg>