<svg id="Capa_1" data-name="Capa 1" xmlns="http://www.w3.org/2000/svg" viewBox="0 0 196 201.5"><defs><style>.cls-1{fill:none;stroke:#000;stroke-miterlimit:10;stroke-width:10px;}.cls-2{fill:#3d4c88;}</style></defs><title>shippingAddress</title><path class="cls-1" d="M169.39,197" transform="translate(-2 -0.5)"/><path class="cls-2" d="M134.5,54A34.5,34.5,0,1,0,100,88.5,34.54,34.54,0,0,0,134.5,54ZM100,78.5A24.5,24.5,0,1,1,124.5,54,24.53,24.53,0,0,1,100,78.5Z" transform="translate(-2 -0.5)"/><path class="cls-2" d="M133.8,103l13-23.77a52.53,52.53,0,0,0-1.07-52.87c-.35-.55-.7-1.11-1.07-1.65C129.5,2.24,103.6.61,100.69.5h-.2c-4.44,0-27.35,1.05-42.93,20.92-.4.52-.8,1-1.18,1.56-11.84,16.28-13,38.46-2.92,56.5L66.59,103H21v99H179V103ZM74.29,158.56,31,188.53v-69Zm7.64,6.88,1.16,1.05a25.34,25.34,0,0,0,33.87.1l1.21-1.08L156.44,192H43.56Zm43.93-6.77L169,120.23v68.3ZM64.47,28.86c.31-.43.63-.85,1-1.28C78,11.51,96.55,10.52,100.41,10.5c2.81.12,23.71,1.65,36,19.8q.45.68.87,1.35A42.54,42.54,0,0,1,138,74.44l-37.37,68.37a.17.17,0,0,1-.19.11c-.13,0-.15,0-.19-.11h0L62.19,74.6C54,60,54.91,42,64.47,28.86ZM91.53,147.69h0a10.21,10.21,0,0,0,8.92,5.23h0a10.2,10.2,0,0,0,8.92-5.31L128.33,113h33.76l-51.78,46.12a15.37,15.37,0,0,1-20.53-.06L38.69,113H72.17Z" transform="translate(-2 -0.5)"/><circle class="cls-2" cx="8" cy="33.5" r="3"/><circle class="cls-2" cx="13" cy="37.5" r="3"/><circle class="cls-2" cx="3" cy="37.5" r="3"/><circle class="cls-2" cx="8" cy="41.5" r="3"/><circle class="cls-2" cx="21" cy="84.5" r="3"/><circle class="cls-2" cx="26" cy="88.5" r="3"/><circle class="cls-2" cx="16" cy="88.5" r="3"/><circle class="cls-2" cx="21" cy="92.5" r="3"/><circle class="cls-2" cx="162" cy="84.5" r="3"/><circle class="cls-2" cx="167" cy="88.5" r="3"/><circle class="cls-2" cx="157" cy="88.5" r="3"/><circle class="cls-2" cx="162" cy="92.5" r="3"/><circle class="cls-2" cx="188" cy="48.5" r="3"/><circle class="cls-2" cx="193" cy="52.5" r="3"/><circle class="cls-2" cx="183" cy="52.5" r="3"/><circle class="cls-2" cx="188" cy="56.5" r="3"/><circle class="cls-2" cx="165" cy="13.5" r="3"/><circle class="cls-2" cx="170" cy="17.5" r="3"/><circle class="cls-2" cx="160" cy="17.5" r="3"/><circle class="cls-2" cx="165" cy="21.5" r="3"/></svg>