<svg id="Capa_1" data-name="Capa 1" xmlns="http://www.w3.org/2000/svg" viewBox="0 0 175.9 175.9"><defs><style>.cls-1{fill:#fff;}.cls-2{fill:#1b1464;}</style></defs><title>shippingCarIcon</title><circle class="cls-1" cx="87.9" cy="87.9" r="87.9"/><path class="cls-2" d="M133.3,77.5a6.4,6.4,0,0,0-5-2.4H110.8l-9.5-21.7A2.6,2.6,0,0,0,97.8,52a2.7,2.7,0,0,0-1.3,3.5L105,75.1H73.4l8.5-19.6A2.7,2.7,0,1,0,77,53.4L67.5,75.1H50.1a6.4,6.4,0,0,0-5,2.4,6.1,6.1,0,0,0-1.2,5.2l9.4,40.8a6,6,0,0,0,6.1,4.8H119a6.1,6.1,0,0,0,6.1-4.8l9.4-40.8a6.5,6.5,0,0,0-1.2-5.2ZM119,123H59.4a.8.8,0,0,1-.9-.7L49.1,81.5a.7.7,0,0,1,.2-.7,1,1,0,0,1,.8-.4H65.2L64.5,82a2.7,2.7,0,0,0,1.4,3.5,2,2,0,0,0,1.1.3,2.6,2.6,0,0,0,2.4-1.6L71,80.4h36.3l1.7,3.8a2.6,2.6,0,0,0,2.4,1.6,2.3,2.3,0,0,0,1.1-.3,2.6,2.6,0,0,0,1.3-3.5l-.6-1.6h15.1a1.2,1.2,0,0,1,.8.4,1.2,1.2,0,0,1,.2.7l-9.4,40.8a1,1,0,0,1-.9.7Z" transform="translate(-1.2 -2.1)"/><path class="cls-2" d="M73.2,92a2.6,2.6,0,0,0-2.6,2.6v19.5a2.6,2.6,0,0,0,2.6,2.7,2.7,2.7,0,0,0,2.7-2.7V94.6A2.7,2.7,0,0,0,73.2,92Z" transform="translate(-1.2 -2.1)"/><path class="cls-2" d="M89.2,92a2.7,2.7,0,0,0-2.7,2.6v19.5a2.7,2.7,0,0,0,2.7,2.7,2.6,2.6,0,0,0,2.6-2.7V94.6A2.6,2.6,0,0,0,89.2,92Z" transform="translate(-1.2 -2.1)"/><path class="cls-2" d="M105.2,92a2.7,2.7,0,0,0-2.7,2.6v19.5a2.7,2.7,0,1,0,5.3,0V94.6A2.6,2.6,0,0,0,105.2,92Z" transform="translate(-1.2 -2.1)"/></svg>