<svg id="Capa_1" data-name="Capa 1" xmlns="http://www.w3.org/2000/svg" viewBox="0 0 196 196.5"><defs><style>.cls-1{fill:none;stroke:#000;stroke-miterlimit:10;stroke-width:10px;}.cls-2{fill:#3d4c88;}</style></defs><title>shippingAddress-5px</title><path class="cls-1" d="M169.39,197" transform="translate(-2 -3)"/><path class="cls-2" d="M100,86a32,32,0,1,1,32-32A32,32,0,0,1,100,86Zm0-59a27,27,0,1,0,27,27A27,27,0,0,0,100,27Z" transform="translate(-2 -3)"/><path class="cls-2" d="M23.5,199.5v-94H70.85L55.64,78.26C46.05,61.07,47.13,40,58.41,24.45c.36-.5.73-1,1.12-1.49C74.39,4,96.26,3,100.5,3h.14c2.73.11,27.47,1.66,41.93,23.1.36.53.7,1.06,1,1.58a50,50,0,0,1,1,50.35l-15,27.47H176.5v94Zm12.06-5H164.44L118,162.33l-2.68,2.39a22.84,22.84,0,0,1-30.54-.09l-2.63-2.37Zm86.26-35.59,49.68,34.4V114.66ZM28.5,193.3l49.81-34.48L28.5,113.92Zm59.61-32.38A17.87,17.87,0,0,0,112,161l56.68-50.49h-41.8l-19.62,35.91a7.73,7.73,0,0,1-13.52.06l-20.07-36H32.18Zm10-16.92a2.59,2.59,0,0,0,2.33,1.43h.36l.19-.05a2.69,2.69,0,0,0,1.9-1.37L140.2,75.64a45,45,0,0,0-.85-45.31c-.29-.48-.6-.95-.92-1.43C125.44,9.63,103,8.11,100.52,8h-.13C96.57,8,76.83,9,63.47,26q-.53.67-1,1.35C52.32,41.32,51.36,60.33,60,75.82Z" transform="translate(-2 -3)"/><circle class="cls-2" cx="8" cy="31" r="3"/><circle class="cls-2" cx="13" cy="35" r="3"/><circle class="cls-2" cx="3" cy="35" r="3"/><circle class="cls-2" cx="8" cy="39" r="3"/><circle class="cls-2" cx="21" cy="82" r="3"/><circle class="cls-2" cx="26" cy="86" r="3"/><circle class="cls-2" cx="16" cy="86" r="3"/><circle class="cls-2" cx="21" cy="90" r="3"/><circle class="cls-2" cx="162" cy="82" r="3"/><circle class="cls-2" cx="167" cy="86" r="3"/><circle class="cls-2" cx="157" cy="86" r="3"/><circle class="cls-2" cx="162" cy="90" r="3"/><circle class="cls-2" cx="188" cy="46" r="3"/><circle class="cls-2" cx="193" cy="50" r="3"/><circle class="cls-2" cx="183" cy="50" r="3"/><circle class="cls-2" cx="188" cy="54" r="3"/><circle class="cls-2" cx="165" cy="11" r="3"/><circle class="cls-2" cx="170" cy="15" r="3"/><circle class="cls-2" cx="160" cy="15" r="3"/><circle class="cls-2" cx="165" cy="19" r="3"/></svg>