<svg id="Capa_1" data-name="Capa 1" xmlns="http://www.w3.org/2000/svg" viewBox="0 0 192 198.5"><defs><style>.cls-1{fill:none;stroke:#000;stroke-miterlimit:10;stroke-width:10px;}.cls-2{fill:#3d4c88;}</style></defs><title>shippingAddress-7px</title><path class="cls-1" d="M167.39,196.5" transform="translate(-2 -1.5)"/><path class="cls-2" d="M98,86.5a33,33,0,1,1,33-33,33,33,0,0,1-33,33Zm0-59a26,26,0,1,0,26,26A26,26,0,0,0,98,27.5Z" transform="translate(-2 -1.5)"/><path class="cls-2" d="M20.5,200V104H67.15L52.77,78.25C43,60.73,44.09,39.18,55.59,23.36c.29-.41.55-.75.82-1.09l.34-.44C71.92,2.48,94.18,1.5,98.49,1.5h.2c2.77.11,28,1.67,42.73,23.55.29.43.57.87.85,1.31l.2.31a51.12,51.12,0,0,1,1,51.33l-14.22,26H175.5v96Zm16.26-7H159.24l-43.19-29.9L114,165a23.84,23.84,0,0,1-31.86-.09l-2-1.85Zm-9.26-2.11,47.2-32.68L27.5,115.66Zm93.94-32.57,47.06,32.57V116.38Zm-34.66,1.35a16.86,16.86,0,0,0,22.53.07L164,111H125.44l-19.39,35.39a8.68,8.68,0,0,1-15.21.07L71.05,111H32.79Zm11.53-15.75h.16A1.66,1.66,0,0,0,100,143l37.35-68.32a44.11,44.11,0,0,0-.76-44.29c-.3-.47-.59-.93-.9-1.4C122.86,10.07,100.93,8.61,98.47,8.5H98.4c-3.74,0-23.1,1-36.11,17.66-.31.35-.65.79-1,1.32C51.33,41.12,50.4,59.71,58.88,74.83l38,68.15a1.56,1.56,0,0,0,1.36.93Z" transform="translate(-2 -1.5)"/><circle class="cls-2" cx="8" cy="32" r="3"/><circle class="cls-2" cx="13" cy="36" r="3"/><circle class="cls-2" cx="3" cy="36" r="3"/><circle class="cls-2" cx="8" cy="40" r="3"/><circle class="cls-2" cx="19" cy="83" r="3"/><circle class="cls-2" cx="24" cy="87" r="3"/><circle class="cls-2" cx="14" cy="87" r="3"/><circle class="cls-2" cx="19" cy="91" r="3"/><circle class="cls-2" cx="160" cy="83" r="3"/><circle class="cls-2" cx="165" cy="87" r="3"/><circle class="cls-2" cx="155" cy="87" r="3"/><circle class="cls-2" cx="160" cy="91" r="3"/><circle class="cls-2" cx="184" cy="47" r="3"/><circle class="cls-2" cx="189" cy="51" r="3"/><circle class="cls-2" cx="179" cy="51" r="3"/><circle class="cls-2" cx="184" cy="55" r="3"/><circle class="cls-2" cx="163" cy="12" r="3"/><circle class="cls-2" cx="168" cy="16" r="3"/><circle class="cls-2" cx="158" cy="16" r="3"/><circle class="cls-2" cx="163" cy="20" r="3"/></svg>