<svg id="Capa_1" data-name="Capa 1" xmlns="http://www.w3.org/2000/svg" viewBox="0 0 87 73.3"><title>shoppingCarIcon</title><path d="M87.7,25.5A6,6,0,0,0,83,23.3H66.2L57.1,2.5a2.5,2.5,0,1,0-4.6,2l8.2,18.8H30.3L38.5,4.5a2.5,2.5,0,1,0-4.6-2L24.8,23.3H8a6,6,0,0,0-4.7,2.2,6.1,6.1,0,0,0-1.2,5l9,39.1A5.9,5.9,0,0,0,17,74.2H74a5.9,5.9,0,0,0,5.9-4.6l9-39.1a6.1,6.1,0,0,0-1.2-5ZM74,69.1H17a.8.8,0,0,1-.9-.6l-9-39.1c-.1-.3.1-.5.2-.7a.9.9,0,0,1,.7-.3H22.5l-.6,1.5a2.6,2.6,0,0,0,1.3,3.4l1,.2a2.7,2.7,0,0,0,2.4-1.6l1.5-3.5H62.9l1.5,3.5a2.7,2.7,0,0,0,2.4,1.6l1-.2a2.6,2.6,0,0,0,1.3-3.4l-.6-1.5H83a.9.9,0,0,1,.7.3c.1.2.3.4.2.7l-9,39.1a.8.8,0,0,1-.9.6Z" transform="translate(-2 -0.9)"/><path d="M30.2,39.4A2.6,2.6,0,0,0,27.7,42V60.7a2.5,2.5,0,0,0,2.5,2.5,2.6,2.6,0,0,0,2.6-2.5V42A2.6,2.6,0,0,0,30.2,39.4Z" transform="translate(-2 -0.9)"/><path d="M45.5,39.4A2.6,2.6,0,0,0,43,42V60.7a2.5,2.5,0,0,0,5,0V42A2.6,2.6,0,0,0,45.5,39.4Z" transform="translate(-2 -0.9)"/><path d="M60.8,39.4A2.6,2.6,0,0,0,58.2,42V60.7a2.6,2.6,0,0,0,2.6,2.5,2.5,2.5,0,0,0,2.5-2.5V42A2.6,2.6,0,0,0,60.8,39.4Z" transform="translate(-2 -0.9)"/></svg>