<?xml version="1.0" encoding="utf-8"?>
<!-- Generator: Adobe Illustrator 23.0.2, SVG Export Plug-In . SVG Version: 6.00 Build 0)  -->
<svg version="1.1" id="Capa_1" xmlns="http://www.w3.org/2000/svg" xmlns:xlink="http://www.w3.org/1999/xlink" x="0px" y="0px"
	 viewBox="0 0 1096 1049" style="enable-background:new 0 0 1096 1049;" xml:space="preserve">
<style type="text/css">
	.st0{fill:#FFFFFF;}
</style>
<g>
	<circle class="st0" cx="292.6" cy="928.23" r="100.77"/>
	<circle class="st0" cx="906.95" cy="928.23" r="100.77"/>
</g>
<path class="st0" d="M852.17,749H340.78c-15.17,0-28.51-10.06-32.68-24.64L127.19,91.64C123.02,77.06,109.69,67,94.51,67H51
	c-13.81,0-25-11.19-25-25v0c0-13.81,11.19-25,25-25h81.22c15.17,0,28.51,10.06,32.68,24.64l180.91,632.71
	c4.17,14.59,17.51,24.64,32.68,24.64h441.25c13.41,0,25.57-7.89,31.04-20.13l141.21-316.24c5.63-12.61,20.41-18.26,33.02-12.63l0,0
	c12.61,5.63,18.26,20.41,12.63,33.02L883.2,728.87C877.74,741.11,865.58,749,852.17,749z"/>
</svg>
