<?xml version="1.0" encoding="utf-8"?>
<!-- Generator: Adobe Illustrator 23.0.2, SVG Export Plug-In . SVG Version: 6.00 Build 0)  -->
<svg version="1.1" id="Capa_1" xmlns="http://www.w3.org/2000/svg" xmlns:xlink="http://www.w3.org/1999/xlink" x="0px" y="0px"
	 viewBox="0 0 1231.19 1049" style="enable-background:new 0 0 1231.19 1049;" xml:space="preserve">
<style type="text/css">
	.st0{fill:#FFFFFF;}
</style>
<g>
	<circle class="st0" cx="332.6" cy="928.23" r="100.77"/>
	<circle class="st0" cx="946.95" cy="928.23" r="100.77"/>
</g>
<path class="st0" d="M916.21,767.82H380.89c-44.07,0-82.85-29.08-95.21-71.38L121.96,136.01c-8.2-28.08-33.95-47.38-63.2-47.38h0
	c-13.81,0-25-11.19-25-25v0c0-13.81,11.19-25,25-25h12.48c44.07,0,82.85,29.08,95.21,71.38l156.71,536.43
	c12.36,42.3,51.14,71.38,95.21,71.38h466.13c38.39,0,73.34-22.16,89.72-56.88l116.01-245.99c5.89-12.49,20.79-17.84,33.27-11.95v0
	c12.49,5.89,17.84,20.79,11.95,33.27l-129.53,274.66C989.55,745.66,954.6,767.82,916.21,767.82z"/>
</svg>
