<svg id="Capa_1" data-name="Capa 1" xmlns="http://www.w3.org/2000/svg" viewBox="0 0 167 80"><defs><style>.cls-1{fill:#1f1b62;}.cls-2{fill:#29abe2;}</style></defs><title>sideMenuIcon</title><path class="cls-1" d="M160.5,12.4H6.5A6.4,6.4,0,0,1,0,6.2H0A6.4,6.4,0,0,1,6.5,0h154A6.4,6.4,0,0,1,167,6.2h0A6.4,6.4,0,0,1,160.5,12.4Z" transform="translate(0)"/><path class="cls-1" d="M160.5,46.1H6.5A6.4,6.4,0,0,1,0,39.9H0a6.4,6.4,0,0,1,6.5-6.2h154a6.4,6.4,0,0,1,6.5,6.2h0A6.4,6.4,0,0,1,160.5,46.1Z" transform="translate(0)"/><path class="cls-2" d="M113,80H6.5A6.4,6.4,0,0,1,0,73.8H0a6.4,6.4,0,0,1,6.5-6.2H113a6.4,6.4,0,0,1,6.5,6.2h0A6.4,6.4,0,0,1,113,80Z" transform="translate(0)"/></svg>