<svg id="Capa_1" data-name="Capa 1" xmlns="http://www.w3.org/2000/svg" viewBox="0 0 207 207"><defs><style>.cls-1{fill:red;}</style></defs><title>userProfile</title><path class="cls-1" d="M107,112a39,39,0,1,1,39-39A39.05,39.05,0,0,1,107,112Zm0-63a24,24,0,1,0,24,24A24,24,0,0,0,107,49Z" transform="translate(-3 -2.5)"/><path class="cls-1" d="M106.5,209.5A102.92,102.92,0,0,1,30,175.69l-.25.33-4-5.25-2-2.66A103.5,103.5,0,1,1,210,106a102.61,102.61,0,0,1-20.7,62.1l-6,8-.29-.38A102.92,102.92,0,0,1,106.5,209.5ZM39.32,163.6a88.48,88.48,0,0,0,134.36,0,88.48,88.48,0,0,0-134.36,0Zm67.18-45.9a102.91,102.91,0,0,1,76.16,33.41A88.51,88.51,0,1,0,18,106a87.92,87.92,0,0,0,12.34,45.11A102.91,102.91,0,0,1,106.5,117.7Z" transform="translate(-3 -2.5)"/></svg>