<svg id="Capa_1" data-name="Capa 1" xmlns="http://www.w3.org/2000/svg" xmlns:xlink="http://www.w3.org/1999/xlink" viewBox="0 0 176 176"><defs><style>.cls-1{fill:url(#Degradado_sin_nombre_11);}.cls-2{fill:#fff;}</style><linearGradient id="Degradado_sin_nombre_11" x1="88" y1="34.88" x2="88" y2="158.77" gradientUnits="userSpaceOnUse"><stop offset="0" stop-color="#00d334"/><stop offset="0.19" stop-color="#0bcc31"/><stop offset="0.69" stop-color="#22bd29"/><stop offset="1" stop-color="#2bb826"/></linearGradient></defs><title>whatsappIconShare</title><rect class="cls-1" width="176" height="176" rx="88"/><g id="logo"><path class="cls-2" d="M124,56.3a45.5,45.5,0,0,0-71.6,54.8L46,134.7l24.1-6.3a45.4,45.4,0,0,0,21.7,5.5h0A45.5,45.5,0,0,0,124,56.3ZM91.8,126.2h0A37.9,37.9,0,0,1,72.6,121l-1.4-.9-14.3,3.8L60.7,110l-.9-1.5A37.4,37.4,0,0,1,54,88.4a37.8,37.8,0,1,1,37.8,37.8Zm20.7-28.3-7.7-3.7c-1.1-.3-1.8-.5-2.6.6s-2.9,3.7-3.6,4.5-1.3.8-2.4.2A28.4,28.4,0,0,1,87,93.9,32.8,32.8,0,0,1,80.7,86c-.7-1.1-.1-1.7.5-2.3l1.7-2A4.5,4.5,0,0,0,84,79.8a1.8,1.8,0,0,0-.1-1.9c-.2-.6-2.5-6.2-3.5-8.5s-1.8-1.9-2.5-1.9H75.7a4.1,4.1,0,0,0-3,1.5,12.2,12.2,0,0,0-4,9.4c0,5.6,4.1,11,4.6,11.8s8.1,12.2,19.5,17.1a56.8,56.8,0,0,0,6.4,2.4,15.2,15.2,0,0,0,7.2.5c2.2-.4,6.7-2.8,7.6-5.4s1-5,.7-5.4S113.7,98.5,112.5,97.9Z" transform="translate(-0.6 -2)"/></g></svg>